<svg width="17" height="18" viewBox="0 0 17 18" fill="none" xmlns="http://www.w3.org/2000/svg">
<path d="M13.8 8.2H2.6C1.71634 8.2 1 8.91634 1 9.8V15.4C1 16.2837 1.71634 17 2.6 17H13.8C14.6837 17 15.4 16.2837 15.4 15.4V9.8C15.4 8.91634 14.6837 8.2 13.8 8.2Z" stroke="#373737" stroke-width="1.5" stroke-linecap="round" stroke-linejoin="round"/>
<path d="M4.2002 8.2V5C4.2002 3.93913 4.62162 2.92172 5.37177 2.17157C6.12191 1.42143 7.13933 1 8.2002 1C9.26106 1 10.2785 1.42143 11.0286 2.17157C11.7788 2.92172 12.2002 3.93913 12.2002 5V8.2" stroke="#373737" stroke-width="1.5" stroke-linecap="round" stroke-linejoin="round"/>
</svg>
