<svg width="16" height="18" viewBox="0 0 16 18" fill="none" xmlns="http://www.w3.org/2000/svg">
<path d="M7.53516 0C8.30484 -6.02066e-07 9.04508 0.295826 9.60277 0.826293C10.1605 1.35676 10.4929 2.08128 10.5314 2.85L10.5352 3H14.2852C14.4763 3.00021 14.6602 3.07341 14.7992 3.20464C14.9382 3.33586 15.0218 3.51521 15.033 3.70605C15.0442 3.89688 14.9822 4.08478 14.8595 4.23137C14.7368 4.37796 14.5627 4.47217 14.3729 4.49475L14.2852 4.5H13.6484L12.7634 15.4147C12.7063 16.1191 12.3862 16.7761 11.8667 17.2551C11.3473 17.7341 10.6665 18 9.95991 18H5.11041C4.40379 18 3.72305 17.7341 3.20358 17.2551C2.68412 16.7761 2.364 16.1191 2.30691 15.4147L1.42116 4.5H0.785156C0.601456 4.49998 0.424154 4.43253 0.286877 4.31046C0.149601 4.18839 0.0618991 4.02019 0.0404062 3.83775L0.0351562 3.75C0.0351805 3.5663 0.102623 3.389 0.224693 3.25172C0.346762 3.11444 0.514968 3.02674 0.697406 3.00525L0.785156 3H4.53516C4.53516 2.20435 4.85123 1.44129 5.41384 0.87868C5.97645 0.316071 6.73951 0 7.53516 0ZM5.84766 6.9375C5.71173 6.93751 5.5804 6.98673 5.47796 7.07608C5.37552 7.16542 5.30889 7.28883 5.29041 7.4235L5.28516 7.5V13.5L5.29041 13.5765C5.30893 13.7111 5.37557 13.8345 5.47801 13.9238C5.58045 14.0131 5.71175 14.0623 5.84766 14.0623C5.98356 14.0623 6.11487 14.0131 6.2173 13.9238C6.31974 13.8345 6.38638 13.7111 6.40491 13.5765L6.41016 13.5V7.5L6.40491 7.4235C6.38642 7.28883 6.3198 7.16542 6.21735 7.07608C6.11491 6.98673 5.98358 6.93751 5.84766 6.9375ZM9.22266 6.9375C9.08673 6.93751 8.9554 6.98673 8.85296 7.07608C8.75052 7.16542 8.68389 7.28883 8.66541 7.4235L8.66016 7.5V13.5L8.66541 13.5765C8.68393 13.7111 8.75057 13.8345 8.85301 13.9238C8.95545 14.0131 9.08675 14.0623 9.22266 14.0623C9.35856 14.0623 9.48987 14.0131 9.5923 13.9238C9.69474 13.8345 9.76138 13.7111 9.77991 13.5765L9.78516 13.5V7.5L9.77991 7.4235C9.76142 7.28883 9.6948 7.16542 9.59236 7.07608C9.48991 6.98673 9.35859 6.93751 9.22266 6.9375ZM7.53516 1.5C7.15672 1.49988 6.79223 1.6428 6.51475 1.90012C6.23726 2.15744 6.06729 2.51013 6.03891 2.8875L6.03516 3H9.03516L9.03141 2.8875C9.00302 2.51013 8.83305 2.15744 8.55557 1.90012C8.27808 1.6428 7.91359 1.49988 7.53516 1.5Z" fill="#333333"/>
</svg>
