<svg width="17" height="16" viewBox="0 0 17 16" fill="none" xmlns="http://www.w3.org/2000/svg">
<path d="M1.02816 11.2887L0.0251012 14.6745C-0.00950084 14.8327 -0.0083147 14.9967 0.028573 15.1544C0.0654607 15.3122 0.137118 15.4597 0.23831 15.5861C0.339503 15.7126 0.467674 15.8149 0.613461 15.8855C0.759247 15.9561 0.918967 15.9933 1.08095 15.9943C1.15643 16.0019 1.23248 16.0019 1.30796 15.9943L4.72011 14.9912L8.90127 10.8259L13.0824 6.66058L9.35881 2.94751L1.02816 11.2887Z" fill="#333333"/>
<path d="M15.7117 2.48965L13.5402 0.318121C13.3354 0.114376 13.0583 0 12.7695 0C12.4806 0 12.2035 0.114376 11.9987 0.318121L10.2671 2.04971L13.9854 5.76806L15.717 4.03647C15.8184 3.93462 15.8986 3.81379 15.9532 3.68089C16.0078 3.54799 16.0356 3.40563 16.0351 3.26196C16.0347 3.11829 16.0058 2.97613 15.9503 2.8436C15.8949 2.71108 15.8138 2.5908 15.7117 2.48965Z" fill="#333333"/>
</svg>
