<svg width="31" height="31" viewBox="0 0 31 31" fill="none" xmlns="http://www.w3.org/2000/svg">
<path d="M25.2217 23.8185L26.8631 25.1953C27.989 23.8653 28.874 22.3489 29.4785 20.7146L27.4663 19.9828C26.9473 21.3821 26.188 22.6802 25.2228 23.8185H25.2217Z" fill="#98A6C5"/>
<path d="M17.5713 28.1537L18.0138 30.2622C19.7256 29.9657 21.3722 29.3717 22.8791 28.5072L21.857 26.6526C20.5241 27.3929 19.0748 27.9005 17.5713 28.1537Z" fill="#98A6C5"/>
<path d="M9.00014 26.6526L7.92871 28.5072C9.45308 29.3721 11.116 29.9659 12.8434 30.2622L13.2151 28.1547C11.734 27.901 10.3079 27.3928 9.00014 26.6526Z" fill="#98A6C5"/>
<path d="M3.39105 19.9828L1.37891 20.7146C1.98302 22.3489 2.86772 23.8652 3.99319 25.1953L5.63462 23.8185C4.66932 22.6802 3.91008 21.3821 3.39105 19.9828Z" fill="#98A6C5"/>
<path d="M15.4284 21.9286C15.1106 21.9286 14.7998 22.0228 14.5356 22.1994C14.2713 22.376 14.0653 22.627 13.9436 22.9207C13.822 23.2144 13.7902 23.5375 13.8522 23.8493C13.9142 24.161 14.0672 24.4474 14.292 24.6722C14.5168 24.8969 14.8031 25.05 15.1149 25.112C15.4266 25.174 15.7498 25.1422 16.0435 25.0205C16.3371 24.8989 16.5881 24.6929 16.7647 24.4286C16.9413 24.1643 17.0356 23.8536 17.0356 23.5357C17.0356 23.1095 16.8663 22.7007 16.5649 22.3993C16.2635 22.0979 15.8547 21.9286 15.4284 21.9286Z" fill="#98A6C5"/>
<path d="M14.3574 6.92859H16.5003V18.7143H14.3574V6.92859Z" fill="#98A6C5"/>
<path d="M30.4287 15.5H28.2859C28.2859 12.0901 26.9313 8.81981 24.5201 6.40863C22.1089 3.99744 18.8386 2.64286 15.4287 2.64286C12.0188 2.64286 8.74852 3.99744 6.33734 6.40863C3.92616 8.81981 2.57157 12.0901 2.57157 15.5H0.428711C0.428711 11.5218 2.00906 7.70644 4.82211 4.8934C7.63515 2.08035 11.4505 0.5 15.4287 0.5C19.407 0.5 23.2223 2.08035 26.0353 4.8934C28.8484 7.70644 30.4287 11.5218 30.4287 15.5Z" fill="#98A6C5"/>
</svg>
