<svg width="50" height="50" viewBox="0 0 50 50" fill="none" xmlns="http://www.w3.org/2000/svg">
<path d="M25 0C31.6304 0 37.9893 2.63392 42.6777 7.32233C47.3661 12.0107 50 18.3696 50 25C50 31.6304 47.3661 37.9893 42.6777 42.6777C37.9893 47.3661 31.6304 50 25 50C18.3696 50 12.0107 47.3661 7.32233 42.6777C2.63392 37.9893 0 31.6304 0 25C0 18.3696 2.63392 12.0107 7.32233 7.32233C12.0107 2.63392 18.3696 0 25 0ZM35.4937 17.6437C35.235 17.3862 34.8943 17.2273 34.5306 17.1948C34.167 17.1623 33.8035 17.2581 33.5031 17.4656L33.2844 17.6437L21.875 29.0563L16.7313 23.9094L16.5125 23.7281C16.2115 23.5208 15.8474 23.4255 15.4834 23.4589C15.1194 23.4922 14.7787 23.6522 14.5204 23.9108C14.2622 24.1694 14.1027 24.5104 14.0699 24.8744C14.037 25.2384 14.1328 25.6024 14.3406 25.9031L14.5187 26.1219L20.7687 32.3719L20.9875 32.55C21.2484 32.7301 21.558 32.8265 21.875 32.8265C22.192 32.8265 22.5016 32.7301 22.7625 32.55L22.9813 32.3687L35.4937 19.8563L35.675 19.6375C35.883 19.3365 35.9787 18.9721 35.9456 18.6078C35.9125 18.2435 35.7526 17.9023 35.4937 17.6437Z" fill="#7F0D7F"/>
</svg>
