<svg width="50" height="50" viewBox="0 0 50 50" fill="none" xmlns="http://www.w3.org/2000/svg">
<circle cx="25" cy="25" r="25" fill="#7F0D7F"/>
<path d="M24.9999 15.4C27.546 15.4 29.9878 16.4114 31.7881 18.2118C33.5885 20.0121 34.5999 22.4539 34.5999 25C34.5999 27.5461 33.5885 29.9879 31.7881 31.7882C29.9878 33.5886 27.546 34.6 24.9999 34.6C22.4538 34.6 20.012 33.5886 18.2117 31.7882C16.4113 29.9879 15.3999 27.5461 15.3999 25C15.3999 22.4539 16.4113 20.0121 18.2117 18.2118C20.012 16.4114 22.4538 15.4 24.9999 15.4ZM24.9999 28C24.7612 28 24.5323 28.0948 24.3635 28.2636C24.1947 28.4324 24.0999 28.6613 24.0999 28.9C24.0999 29.1387 24.1947 29.3676 24.3635 29.5364C24.5323 29.7052 24.7612 29.8 24.9999 29.8C25.2386 29.8 25.4675 29.7052 25.6363 29.5364C25.8051 29.3676 25.8999 29.1387 25.8999 28.9C25.8999 28.6613 25.8051 28.4324 25.6363 28.2636C25.4675 28.0948 25.2386 28 24.9999 28ZM24.9999 20.2C24.8595 20.1999 24.7235 20.2492 24.6156 20.3391C24.5077 20.429 24.4348 20.5539 24.4095 20.692L24.3999 20.8V26.2L24.4095 26.308C24.4346 26.4463 24.5074 26.5715 24.6153 26.6616C24.7232 26.7517 24.8593 26.8011 24.9999 26.8011C25.1405 26.8011 25.2766 26.7517 25.3845 26.6616C25.4924 26.5715 25.5653 26.4463 25.5903 26.308L25.5999 26.2V20.8L25.5903 20.692C25.565 20.5539 25.4921 20.429 25.3842 20.3391C25.2763 20.2492 25.1403 20.1999 24.9999 20.2Z" fill="white"/>
</svg>
