<svg width="30" height="30" viewBox="0 0 30 30" fill="none" xmlns="http://www.w3.org/2000/svg">
<path d="M9.93746 9.74995H3.18749C2.78967 9.74995 2.40814 9.59192 2.12684 9.31061C1.84553 9.02931 1.6875 8.64778 1.6875 8.24996V1.49999C1.6875 1.10217 1.84553 0.720641 2.12684 0.439338C2.40814 0.158034 2.78967 0 3.18749 0C3.58532 0 3.96684 0.158034 4.24815 0.439338C4.52945 0.720641 4.68748 1.10217 4.68748 1.49999V6.74997H9.93746C10.3353 6.74997 10.7168 6.908 10.9981 7.1893C11.2794 7.47061 11.4375 7.85214 11.4375 8.24996C11.4375 8.64778 11.2794 9.02931 10.9981 9.31061C10.7168 9.59192 10.3353 9.74995 9.93746 9.74995Z" fill="#98A6C5"/>
<path d="M28.4995 16.5001C28.1017 16.5001 27.7201 16.342 27.4388 16.0607C27.1575 15.7794 26.9995 15.3979 26.9995 15.0001C27.0006 12.3594 26.1301 9.79217 24.5231 7.69677C22.9161 5.60137 20.6624 4.09497 18.1118 3.41132C15.5611 2.72767 12.8562 2.905 10.4166 3.9158C7.97702 4.9266 5.93929 6.71434 4.6196 9.00161C4.42029 9.34592 4.09236 9.59696 3.70796 9.6995C3.32356 9.80203 2.91417 9.74766 2.56986 9.54835C2.22554 9.34905 1.9745 9.02112 1.87197 8.63672C1.76943 8.25232 1.8238 7.84293 2.02311 7.49861C3.67348 4.63999 6.22112 2.40591 9.27079 1.14298C12.3205 -0.119954 15.7017 -0.34114 18.8899 0.513733C22.0781 1.36861 24.8951 3.25175 26.9038 5.87101C28.9125 8.49028 30.0007 11.6992 29.9995 15.0001C29.9995 15.3979 29.8414 15.7794 29.5601 16.0607C29.2788 16.342 28.8973 16.5001 28.4995 16.5001ZM26.812 30C26.4142 30 26.0326 29.842 25.7513 29.5607C25.47 29.2794 25.312 28.8978 25.312 28.5V23.25H20.062C19.6642 23.25 19.2827 23.092 19.0014 22.8107C18.7201 22.5294 18.562 22.1479 18.562 21.75C18.562 21.3522 18.7201 20.9707 19.0014 20.6894C19.2827 20.4081 19.6642 20.25 20.062 20.25H26.812C27.2098 20.25 27.5913 20.4081 27.8726 20.6894C28.1539 20.9707 28.312 21.3522 28.312 21.75V28.5C28.312 28.8978 28.1539 29.2794 27.8726 29.5607C27.5913 29.842 27.2098 30 26.812 30Z" fill="#98A6C5"/>
<path d="M14.9999 29.9998C11.0232 29.995 7.21064 28.4132 4.39864 25.6012C1.58664 22.7892 0.00476355 18.9766 0 14.9999C0 14.602 0.158034 14.2205 0.439338 13.9392C0.720641 13.6579 1.10217 13.4999 1.49999 13.4999C1.89782 13.4999 2.27934 13.6579 2.56065 13.9392C2.84195 14.2205 2.99998 14.602 2.99998 14.9999C2.99884 17.6405 3.86932 20.2078 5.47633 22.3032C7.08334 24.3986 9.33703 25.905 11.8877 26.5886C14.4383 27.2723 17.1433 27.0949 19.5829 26.0841C22.0224 25.0733 24.0602 23.2856 25.3799 20.9983C25.4786 20.8279 25.6099 20.6785 25.7663 20.5587C25.9227 20.439 26.1012 20.3512 26.2915 20.3005C26.4818 20.2497 26.6803 20.2369 26.8756 20.2628C27.0709 20.2888 27.2591 20.3529 27.4296 20.4516C27.6001 20.5503 27.7495 20.6816 27.8692 20.838C27.989 20.9944 28.0767 21.1729 28.1275 21.3632C28.1783 21.5536 28.1911 21.752 28.1651 21.9473C28.1392 22.1426 28.075 22.3308 27.9764 22.5013C26.6571 24.776 24.7648 26.6653 22.4881 27.981C20.2113 29.2966 17.6295 29.9927 14.9999 29.9998Z" fill="#98A6C5"/>
</svg>
