<svg width="20" height="15" viewBox="0 0 20 15" fill="none" xmlns="http://www.w3.org/2000/svg">
<path d="M0 1.75C0 0.784 0.784 0 1.75 0H15.25C16.216 0 17 0.784 17 1.75V10.25C17 10.7141 16.8156 11.1592 16.4874 11.4874C16.1592 11.8156 15.7141 12 15.25 12H1.75C1.28587 12 0.840752 11.8156 0.512563 11.4874C0.184375 11.1592 0 10.7141 0 10.25V1.75ZM3 1.25V2.25C3 2.44891 2.92098 2.63968 2.78033 2.78033C2.63968 2.92098 2.44891 3 2.25 3H1.25V4.5H2.25C2.54547 4.5 2.83806 4.4418 3.11104 4.32873C3.38402 4.21566 3.63206 4.04992 3.84099 3.84099C4.04992 3.63206 4.21566 3.38402 4.32873 3.11104C4.4418 2.83805 4.5 2.54547 4.5 2.25V1.25H3ZM8.5 8.5C9.09674 8.5 9.66903 8.26295 10.091 7.84099C10.5129 7.41903 10.75 6.84674 10.75 6.25C10.75 5.65326 10.5129 5.08097 10.091 4.65901C9.66903 4.23705 9.09674 4 8.5 4C7.90326 4 7.33097 4.23705 6.90901 4.65901C6.48705 5.08097 6.25 5.65326 6.25 6.25C6.25 6.84674 6.48705 7.41903 6.90901 7.84099C7.33097 8.26295 7.90326 8.5 8.5 8.5ZM1.25 9H2.25C2.44891 9 2.63968 9.07902 2.78033 9.21967C2.92098 9.36032 3 9.55109 3 9.75V10.75H4.5V9.75C4.5 9.15326 4.26295 8.58097 3.84099 8.15901C3.41903 7.73705 2.84674 7.5 2.25 7.5H1.25V9ZM14 9.75C14 9.55109 14.079 9.36032 14.2197 9.21967C14.3603 9.07902 14.5511 9 14.75 9H15.75V7.5H14.75C14.1533 7.5 13.581 7.73705 13.159 8.15901C12.7371 8.58097 12.5 9.15326 12.5 9.75V10.75H14V9.75ZM14 2.25V1.25H12.5V2.25C12.5 2.54547 12.5582 2.83805 12.6713 3.11104C12.7843 3.38402 12.9501 3.63206 13.159 3.84099C13.581 4.26295 14.1533 4.5 14.75 4.5H15.75V3H14.75C14.5511 3 14.3603 2.92098 14.2197 2.78033C14.079 2.63968 14 2.44891 14 2.25ZM2.401 13.5C2.66431 13.9563 3.04315 14.3351 3.4994 14.5984C3.95565 14.8618 4.47321 15.0003 5 15H15.25C15.8738 15 16.4915 14.8771 17.0677 14.6384C17.644 14.3997 18.1677 14.0498 18.6088 13.6088C19.0498 13.1677 19.3997 12.644 19.6384 12.0677C19.8771 11.4915 20 10.8738 20 10.25V5C20.0002 4.47323 19.8616 3.95571 19.5983 3.49948C19.335 3.04324 18.9562 2.66438 18.5 2.401V10.25C18.5 11.112 18.1576 11.9386 17.5481 12.5481C16.9386 13.1576 16.112 13.5 15.25 13.5H2.401Z" fill="#B2A1B2"/>
</svg>
