<svg width="18" height="18" viewBox="0 0 18 18" fill="none" xmlns="http://www.w3.org/2000/svg">
<path d="M7.19713 0.694996C7.29047 0.726663 7.38213 0.764996 7.4713 0.80833L8.54047 1.335C8.68358 1.40544 8.84096 1.44207 9.00047 1.44207C9.15998 1.44207 9.31735 1.40544 9.46047 1.335L10.5296 0.80833C11.0749 0.540128 11.7043 0.49946 12.2796 0.695268C12.8548 0.891077 13.3287 1.30733 13.5971 1.8525L13.6588 1.9875L13.7113 2.12666L14.0946 3.25416C14.1988 3.56083 14.4396 3.80083 14.7455 3.905L15.8738 4.28833C16.1824 4.39334 16.4651 4.56299 16.703 4.78596C16.9408 5.00893 17.1284 5.28008 17.2531 5.5813C17.3778 5.88252 17.4368 6.20689 17.4261 6.53273C17.4155 6.85857 17.3354 7.17839 17.1913 7.47083L16.6655 8.54C16.595 8.68311 16.5584 8.84049 16.5584 9C16.5584 9.1595 16.595 9.31688 16.6655 9.46L17.1913 10.5292C17.3353 10.8216 17.4152 11.1413 17.4258 11.467C17.4363 11.7928 17.3773 12.1171 17.2526 12.4182C17.1279 12.7193 16.9404 12.9904 16.7027 13.2133C16.4649 13.4362 16.1823 13.6058 15.8738 13.7108L14.7455 14.0942C14.5945 14.1456 14.4574 14.2311 14.3447 14.3439C14.232 14.4568 14.1468 14.594 14.0955 14.745L13.7113 15.8733C13.6063 16.1819 13.4366 16.4644 13.2137 16.7022C12.9908 16.94 12.7198 17.1275 12.4186 17.2522C12.1175 17.3768 11.7933 17.4359 11.4675 17.4253C11.1418 17.4147 10.822 17.3348 10.5296 17.1908L9.46047 16.665C9.31735 16.5946 9.15998 16.5579 9.00047 16.5579C8.84096 16.5579 8.68358 16.5946 8.54047 16.665L7.4713 17.1908C7.1789 17.3348 6.85916 17.4147 6.53341 17.4253C6.20767 17.4359 5.88341 17.3768 5.58229 17.2522C5.28117 17.1275 5.01011 16.94 4.7872 16.7022C4.56429 16.4644 4.39466 16.1819 4.28963 15.8733L3.9063 14.745C3.85473 14.594 3.76914 14.4568 3.65615 14.3441C3.54316 14.2314 3.40579 14.1462 3.25463 14.095L2.12713 13.7108C1.81853 13.6059 1.53586 13.4363 1.298 13.2135C1.06014 12.9906 0.872564 12.7195 0.747789 12.4184C0.623015 12.1173 0.563915 11.793 0.574436 11.4672C0.584957 11.1414 0.664857 10.8216 0.808801 10.5292L1.33547 9.46C1.40591 9.31688 1.44254 9.1595 1.44254 9C1.44254 8.84049 1.40591 8.68311 1.33547 8.54L0.808801 7.47083C0.664857 7.17838 0.584957 6.85858 0.574436 6.53279C0.563915 6.207 0.623015 5.88272 0.747789 5.58159C0.872564 5.28046 1.06014 5.00941 1.298 4.78654C1.53586 4.56367 1.81853 4.3941 2.12713 4.28916L3.25463 3.90583C3.40581 3.85436 3.54313 3.76883 3.65599 3.65583C3.76884 3.54284 3.8542 3.40541 3.90547 3.25416L4.2888 2.12666C4.3857 1.84166 4.53781 1.57853 4.73643 1.35233C4.93505 1.12612 5.17629 0.941258 5.44637 0.808308C5.71645 0.675357 6.01008 0.59692 6.31048 0.577478C6.61088 0.558035 6.91217 0.597969 7.19713 0.694996ZM11.8913 6.47416L7.37547 10.9908L5.73047 9.01583C5.67867 8.95054 5.61433 8.89628 5.54125 8.85622C5.46817 8.81617 5.38781 8.79114 5.30491 8.7826C5.22202 8.77405 5.13824 8.78218 5.05853 8.80649C4.97882 8.83081 4.90477 8.87082 4.84075 8.92417C4.77673 8.97752 4.72402 9.04314 4.68573 9.11716C4.64744 9.19118 4.62435 9.27211 4.6178 9.35519C4.61125 9.43828 4.62138 9.52183 4.6476 9.60093C4.67382 9.68004 4.71559 9.75311 4.77047 9.81583L6.8538 12.3158C6.90935 12.3825 6.97818 12.4369 7.05591 12.4755C7.13364 12.5142 7.21856 12.5362 7.30527 12.5402C7.39197 12.5442 7.47856 12.5301 7.55952 12.4988C7.64047 12.4675 7.71402 12.4196 7.77547 12.3583L12.7755 7.35833C12.8369 7.30111 12.8861 7.23211 12.9203 7.15544C12.9544 7.07878 12.9728 6.99602 12.9743 6.9121C12.9758 6.82818 12.9603 6.74482 12.9289 6.667C12.8975 6.58917 12.8507 6.51848 12.7913 6.45913C12.732 6.39978 12.6613 6.35299 12.5835 6.32156C12.5056 6.29013 12.4223 6.27469 12.3384 6.27617C12.2544 6.27765 12.1717 6.29602 12.095 6.33018C12.0184 6.36434 11.9494 6.41359 11.8921 6.475L11.8913 6.47416Z" fill="#330533"/>
</svg>
