<svg width="24" height="25" viewBox="0 0 24 25" fill="none" xmlns="http://www.w3.org/2000/svg">
<path d="M8 3.97333C8 3.17768 8.31607 2.41462 8.87868 1.85201C9.44129 1.2894 10.2044 0.973328 11 0.973328H13C13.7956 0.973328 14.5587 1.2894 15.1213 1.85201C15.6839 2.41462 16 3.17768 16 3.97333V25H8V3.97333ZM6 10.3333H3C2.20435 10.3333 1.44129 10.6494 0.87868 11.212C0.31607 11.7746 0 12.5377 0 13.3333V24C0 24.5533 0.448 25 1 25H6V10.3333ZM18 25H23C23.2652 25 23.5196 24.8946 23.7071 24.7071C23.8946 24.5196 24 24.2652 24 24V9.33333C24 8.53768 23.6839 7.77462 23.1213 7.21201C22.5587 6.6494 21.7957 6.33333 21 6.33333H18V25Z" fill="#B2A1B2"/>
</svg>
