<svg width="19" height="30" viewBox="0 0 19 30" fill="none" xmlns="http://www.w3.org/2000/svg">
<path d="M2.47059 18.0013L16.0588 18.0025C16.6819 18.0027 17.2819 18.2315 17.7387 18.6431C18.1955 19.0547 18.4753 19.6188 18.522 20.2223L18.5294 20.4023V23.4007C18.5282 28.4402 13.2337 30 9.2647 30C5.37476 30 0.211235 28.5026 0.00617661 23.6983L0 23.4007V20.4011C0 19.1364 1.008 18.0997 2.28529 18.0085L2.47059 18.0013ZM9.2647 2.72978e-08C10.157 7.87987e-05 11.0405 0.170867 11.8649 0.502614C12.6892 0.834361 13.4382 1.32057 14.0691 1.93348C14.7 2.54639 15.2004 3.27399 15.5418 4.07476C15.8832 4.87552 16.0589 5.73375 16.0588 6.60046C16.0587 7.46716 15.8829 8.32537 15.5414 9.12607C15.1998 9.92677 14.6993 10.6543 14.0683 11.2671C13.4372 11.8799 12.6882 12.366 11.8637 12.6976C11.0393 13.0292 10.1558 13.1998 9.26347 13.1997C7.46139 13.1996 5.73319 12.5041 4.45905 11.2662C3.1849 10.0284 2.46919 8.34965 2.46935 6.59926C2.46952 4.84887 3.18555 3.17023 4.45992 1.93263C5.7343 0.695029 7.46263 -0.000159059 9.2647 2.72978e-08Z" fill="#98A6C5"/>
</svg>
