<svg width="28" height="28" viewBox="0 0 28 28" fill="none" xmlns="http://www.w3.org/2000/svg">
<path d="M18.3332 16H12.9998C12.7346 16 12.4803 15.8946 12.2927 15.7071C12.1052 15.5195 11.9998 15.2652 11.9998 15V6.99996C11.9998 6.73474 12.1052 6.48039 12.2927 6.29285C12.4803 6.10532 12.7346 5.99996 12.9998 5.99996C13.2651 5.99996 13.5194 6.10532 13.7069 6.29285C13.8945 6.48039 13.9998 6.73474 13.9998 6.99996V14H18.3332C18.5984 14 18.8527 14.1053 19.0403 14.2929C19.2278 14.4804 19.3332 14.7347 19.3332 15C19.3332 15.2652 19.2278 15.5195 19.0403 15.7071C18.8527 15.8946 18.5984 16 18.3332 16ZM13.9998 0.666626C6.63717 0.666626 0.666504 6.63729 0.666504 14C0.666504 21.3626 6.63717 27.3333 13.9998 27.3333C21.3625 27.3333 27.3332 21.3626 27.3332 14C27.3332 6.63729 21.3625 0.666626 13.9998 0.666626Z" fill="#B2A1B2"/>
</svg>
