<svg width="30" height="30" viewBox="0 0 30 30" fill="none" xmlns="http://www.w3.org/2000/svg">
<path d="M28.1405 15L29.7984 12.1345C29.9977 11.7898 30.0519 11.38 29.9491 10.9953C29.8463 10.6106 29.595 10.2825 29.2503 10.0831L26.3819 8.42508V5.12111C26.3819 4.72281 26.2237 4.34082 25.9421 4.05918C25.6604 3.77753 25.2785 3.61931 24.8802 3.61931H21.5778L19.9214 0.752363C19.7213 0.408324 19.3938 0.156905 19.0098 0.0525218C18.8193 0.000883648 18.6205 -0.0124315 18.4248 0.0133482C18.2292 0.0391278 18.0406 0.10349 17.87 0.202702L15.0016 1.86069L12.1333 0.2012C11.7884 0.00205774 11.3785 -0.051909 10.9937 0.0511716C10.609 0.154252 10.281 0.405937 10.0819 0.750861L8.42394 3.61931H5.12158C4.72328 3.61931 4.34131 3.77753 4.05967 4.05918C3.77804 4.34082 3.61982 4.72281 3.61982 5.12111V8.42358L0.751464 10.0816C0.580313 10.18 0.4303 10.3113 0.310045 10.4679C0.189791 10.6245 0.101664 10.8034 0.0507287 10.9941C-0.000206626 11.1849 -0.0129467 11.3839 0.0132405 11.5796C0.0394276 11.7753 0.104026 11.9639 0.203323 12.1345L1.86126 15L0.203323 17.8654C0.00507482 18.2105 -0.0487133 18.62 0.0536861 19.0045C0.156086 19.3891 0.406367 19.7176 0.749963 19.9184L3.61832 21.5764V24.8788C3.61832 25.2771 3.77654 25.6591 4.05817 25.9408C4.33981 26.2224 4.72178 26.3806 5.12007 26.3806H8.42394L10.0819 29.2491C10.2148 29.4764 10.4047 29.6651 10.6327 29.7968C10.8607 29.9285 11.1191 29.9985 11.3824 30C11.6437 30 11.9035 29.9309 12.1348 29.7973L15.0001 28.1393L17.8685 29.7973C18.2133 29.9961 18.6229 30.0501 19.0075 29.9473C19.3921 29.8446 19.7202 29.5935 19.9199 29.2491L21.5763 26.3806H24.8787C25.277 26.3806 25.6589 26.2224 25.9406 25.9408C26.2222 25.6591 26.3804 25.2771 26.3804 24.8788V21.5764L29.2488 19.9184C29.4196 19.8196 29.5694 19.6882 29.6894 19.5316C29.8094 19.3749 29.8974 19.1962 29.9483 19.0055C29.9992 18.8148 30.0121 18.616 29.9861 18.4204C29.9601 18.2248 29.8958 18.0362 29.7969 17.8654L28.1405 15ZM11.2457 7.47594C11.8434 7.47614 12.4164 7.71375 12.8389 8.13649C13.2614 8.55924 13.4986 9.13249 13.4984 9.73015C13.4982 10.3278 13.2606 10.9009 12.8378 11.3234C12.4151 11.7458 11.8419 11.9831 11.2442 11.9829C10.6466 11.9827 10.0735 11.745 9.65107 11.3223C9.22862 10.8996 8.9914 10.3263 8.9916 9.72865C8.9918 9.13099 9.2294 8.5579 9.65213 8.13543C10.0749 7.71297 10.6481 7.47574 11.2457 7.47594ZM11.6963 21.8933L9.29345 20.0926L18.304 8.07816L20.7068 9.87883L11.6963 21.8933ZM18.7545 22.494C18.4586 22.4939 18.1656 22.4355 17.8922 22.3222C17.6189 22.2088 17.3705 22.0427 17.1614 21.8334C16.9522 21.6241 16.7863 21.3756 16.6731 21.1022C16.56 20.8288 16.5018 20.5357 16.5019 20.2398C16.502 19.9438 16.5604 19.6508 16.6737 19.3775C16.787 19.1041 16.9531 18.8557 17.1624 18.6466C17.3717 18.4374 17.6202 18.2715 17.8936 18.1583C18.1671 18.0452 18.4601 17.987 18.756 17.9871C19.3537 17.9873 19.9267 18.2249 20.3492 18.6476C20.7716 19.0704 21.0089 19.6436 21.0087 20.2413C21.0085 20.8389 20.7709 21.412 20.3481 21.8345C19.9254 22.257 19.3522 22.4942 18.7545 22.494Z" fill="#98A6C5"/>
</svg>
