<svg width="12" height="12" viewBox="0 0 12 12" fill="none" xmlns="http://www.w3.org/2000/svg">
<path d="M2.16667 1C1.85725 1 1.5605 1.12292 1.34171 1.34171C1.12292 1.5605 1 1.85725 1 2.16667V9.83333C1 10.4773 1.522 11 2.16667 11H9.83333C10.1428 11 10.4395 10.8771 10.6583 10.6583C10.8771 10.4395 11 10.1428 11 9.83333V7.16667C11 7.03406 11.0527 6.90688 11.1464 6.81311C11.2402 6.71935 11.3674 6.66667 11.5 6.66667C11.6326 6.66667 11.7598 6.71935 11.8536 6.81311C11.9473 6.90688 12 7.03406 12 7.16667V9.83333C12 10.408 11.7717 10.9591 11.3654 11.3654C10.9591 11.7717 10.408 12 9.83333 12H2.16667C1.59203 12 1.04093 11.7717 0.634602 11.3654C0.228273 10.9591 0 10.408 0 9.83333V2.16667C0 1.59203 0.228273 1.04093 0.634602 0.634602C1.04093 0.228273 1.59203 0 2.16667 0H4.83333C4.96594 0 5.09312 0.0526784 5.18689 0.146447C5.28065 0.240215 5.33333 0.367392 5.33333 0.5C5.33333 0.632608 5.28065 0.759785 5.18689 0.853553C5.09312 0.947322 4.96594 1 4.83333 1H2.16667ZM6.66667 0.5C6.66667 0.367392 6.71935 0.240215 6.81311 0.146447C6.90688 0.0526784 7.03406 0 7.16667 0H11.5C11.6326 0 11.7598 0.0526784 11.8536 0.146447C11.9473 0.240215 12 0.367392 12 0.5V4.83333C12 4.96594 11.9473 5.09312 11.8536 5.18689C11.7598 5.28065 11.6326 5.33333 11.5 5.33333C11.3674 5.33333 11.2402 5.28065 11.1464 5.18689C11.0527 5.09312 11 4.96594 11 4.83333V1.70667L7.52 5.18667C7.42522 5.27499 7.29985 5.32307 7.17032 5.32078C7.04078 5.3185 6.91719 5.26602 6.82559 5.17441C6.73398 5.08281 6.6815 4.95922 6.67922 4.82968C6.67693 4.70015 6.72501 4.57478 6.81333 4.48L10.2933 1H7.16667C7.03406 1 6.90688 0.947322 6.81311 0.853553C6.71935 0.759785 6.66667 0.632608 6.66667 0.5Z" fill="#334193"/>
</svg>
