<svg width="24" height="24" viewBox="0 0 24 24" fill="none" xmlns="http://www.w3.org/2000/svg">
<path d="M3.1998 0.799988C2.56329 0.799988 1.95284 1.05284 1.50275 1.50293C1.05266 1.95302 0.799805 2.56347 0.799805 3.19999V19.2C0.799805 20.2609 1.22123 21.2783 1.97138 22.0284C2.72152 22.7786 3.73894 23.2 4.79981 23.2H19.9998C20.8485 23.2 21.6624 22.8628 22.2625 22.2627C22.8627 21.6626 23.1998 20.8487 23.1998 20V7.19999C23.1998 6.63828 23.0519 6.08648 22.7711 5.60003C22.4902 5.11359 22.0863 4.70964 21.5998 4.42879V3.99999C21.5998 3.1513 21.2627 2.33736 20.6625 1.73725C20.0624 1.13713 19.2485 0.799988 18.3998 0.799988H3.1998ZM19.9998 3.99999H3.1998C2.98763 3.99999 2.78415 3.9157 2.63412 3.76567C2.48409 3.61564 2.3998 3.41216 2.3998 3.19999C2.3998 2.98781 2.48409 2.78433 2.63412 2.6343C2.78415 2.48427 2.98763 2.39999 3.1998 2.39999H18.3998C18.8242 2.39999 19.2311 2.56856 19.5312 2.86862C19.8312 3.16868 19.9998 3.57564 19.9998 3.99999ZM17.5998 13.6H19.1998C19.412 13.6 19.6155 13.6843 19.7655 13.8343C19.9155 13.9843 19.9998 14.1878 19.9998 14.4C19.9998 14.6122 19.9155 14.8156 19.7655 14.9657C19.6155 15.1157 19.412 15.2 19.1998 15.2H17.5998C17.3876 15.2 17.1841 15.1157 17.0341 14.9657C16.8841 14.8156 16.7998 14.6122 16.7998 14.4C16.7998 14.1878 16.8841 13.9843 17.0341 13.8343C17.1841 13.6843 17.3876 13.6 17.5998 13.6Z" fill="#B2A1B2"/>
</svg>
