<svg width="1366" height="701" viewBox="0 0 1366 701" fill="none" xmlns="http://www.w3.org/2000/svg">
<path d="M1200.35 269.013C1200.35 269.013 1195.71 248.928 1177.15 248.028C1158.59 247.128 1162.39 268.226 1162.39 268.226C1162.39 268.226 1137.51 249.747 1121.48 255.577C1105.45 261.401 1105.45 271.468 1105.45 271.468C1105.45 271.468 1076.78 253.09 1058.64 257.459C1040.5 261.829 1038.61 270.593 1038.61 270.593C1038.61 270.593 1022.79 268.333 1013.93 270.24C1004.34 272.305 993.059 273.665 993.059 273.665C993.059 273.665 986.524 262.597 973.448 262.842C960.372 263.088 957 273.476 957 273.476L1248 275C1248 275 1243.36 260.727 1225.65 256.244C1207.94 251.743 1200.35 269.013 1200.35 269.013Z" fill="url(#paint0_linear)"/>
<path fill-rule="evenodd" clip-rule="evenodd" d="M1301.66 550.061C1323.39 550.43 1344.8 552.47 1366 556.657V701H0V556.657C23.7002 553.694 46.0508 551.813 68.3105 550.945C68.0107 550.336 67.8037 549.875 67.6709 549.534C66.4551 547.04 64.7354 543.859 63.585 543.189L63.5928 543.174C63.6338 543.106 63.8096 542.812 63.9404 542.304L63.5332 543.163C61.2686 548.072 49.8398 548.89 43.4932 547.57C37.6211 546.374 39.5488 544.748 42.582 542.192C42.8271 541.985 43.0791 541.772 43.335 541.553C45.4805 539.717 49.1045 539.332 52.0303 539.022C53.7734 538.836 55.2686 538.678 56.0547 538.254C58.1875 537.119 55.0801 535.984 50.8408 536.301C48.9678 536.442 47.5059 537.359 45.8584 538.393C43.7998 539.685 41.4512 541.16 37.6465 541.527C30.7998 542.186 25.5859 529.281 25.5859 529.281C30.3262 530.758 38.8057 528.146 39.1221 526.509C39.333 525.414 33.7764 525.135 29.4932 524.919C27.377 524.813 25.5723 524.722 24.9277 524.556C22.9785 524.081 19.5557 520.149 21.6621 512.31C23.7949 504.472 36.9883 506.926 36.9883 506.926C36.9883 506.926 45.9688 520.624 48.5752 520.967C51.1826 521.31 43.2031 507.745 43.2031 507.745C48.2598 507.269 61.1367 513.472 61.1367 513.472C61.1367 513.472 60.3203 529.465 62.9277 529.149C65.5352 528.806 62.9277 514.923 62.9277 514.923C67.8262 516.375 72.3818 522.102 72.3818 522.102C78.0703 531.418 65.8506 538.28 65.8506 538.28C65.8496 538.28 65.6914 543.822 69.1152 550.209C69.1152 550.209 69.2734 550.45 69.5195 550.899C72.4434 550.79 75.3652 550.698 78.29 550.624C79.4102 547.137 80.7891 544.901 80.9961 544.576V544.561C85.499 536.143 85.2881 528.832 85.2881 528.832L85.292 528.82C84.6504 528.453 69.3525 519.523 76.7275 507.507C76.7275 507.507 82.7578 499.959 89.1836 498.032C89.1836 498.032 85.7334 516.348 89.1836 516.771C92.6328 517.193 91.5537 496.106 91.5537 496.106C91.5537 496.106 108.539 487.924 115.202 488.557C115.202 488.557 104.668 506.425 108.118 506.003C111.567 505.58 123.365 487.475 123.365 487.475C123.365 487.475 140.772 484.256 143.563 494.575C146.355 504.921 141.852 510.093 139.271 510.727C138.435 510.932 136.131 511.049 133.414 511.186C127.75 511.473 120.289 511.851 120.574 513.313C120.995 515.477 132.188 518.908 138.402 516.982C138.402 516.982 131.529 534.005 122.496 533.134C121.196 533.008 120.026 532.785 118.958 532.494L118.669 532.737C118.443 532.927 118.182 533.15 117.894 533.397C117.505 533.73 117.069 534.109 116.61 534.515C117.699 535.431 118.631 536.254 119.203 536.998C122.099 535.07 124.656 533.16 124.656 533.16C124.656 533.16 135.822 535.06 135.217 541.896C134.61 548.705 130.766 550.816 129.08 550.632C128.732 550.593 128.035 550.403 127.146 550.136C126.675 549.995 126.149 549.831 125.592 549.658L125.48 549.624L125.422 549.606C121.96 548.53 117.425 547.121 117.283 548.045C117.2 548.595 118.069 549.626 119.408 550.688C194.175 552.747 278.181 565.083 415.482 585.245C476.978 594.275 549.164 604.875 636.001 616.825C649.254 618.649 662.32 620.156 675.208 621.373C672.895 612.082 677.776 604.647 677.776 604.647C681.2 598.26 681.042 592.718 681.041 592.718C681.041 592.718 668.821 585.856 674.51 576.539C674.51 576.539 679.065 570.812 683.964 569.361C683.964 569.361 681.356 583.243 683.964 583.586C686.571 583.903 685.755 567.909 685.755 567.909C685.755 567.909 698.632 561.707 703.688 562.182C703.688 562.182 695.709 575.748 698.316 575.404C700.923 575.061 709.903 561.364 709.903 561.364C709.903 561.364 723.097 558.909 725.229 566.748C727.336 574.586 723.913 578.519 721.964 578.994C721.319 579.16 719.515 579.25 717.398 579.357C713.115 579.572 707.559 579.852 707.77 580.947C708.086 582.583 716.565 585.196 721.306 583.718C721.306 583.718 716.092 596.624 709.245 595.964C705.44 595.597 703.092 594.123 701.033 592.83C699.386 591.797 697.924 590.879 696.051 590.738C691.812 590.422 688.704 591.557 690.837 592.691C691.623 593.115 693.118 593.274 694.861 593.459C697.787 593.77 701.411 594.155 703.557 595.99L704.31 596.629C707.343 599.185 709.271 600.811 703.398 602.008C697.052 603.327 685.623 602.509 683.358 597.6L682.95 596.741C683.025 597.032 683.115 597.252 683.187 597.401C683.238 597.51 683.28 597.58 683.298 597.61L683.307 597.627C682.156 598.297 680.437 601.477 679.221 603.971C679.054 604.401 678.769 605.021 678.328 605.887C678.265 606.012 678.203 606.141 678.144 606.272L678.107 606.352C675.985 611.127 676.603 619.306 676.819 621.523C833.622 636.044 963.855 607.559 1079.12 582.347C1149.48 566.957 1214.27 552.786 1276.11 550.364C1275.69 549.675 1275.26 549.04 1274.81 548.484C1272.77 545.934 1271.29 542.685 1269.77 539.32C1268.08 535.592 1266.32 531.721 1263.65 528.498C1262 526.506 1259.38 524.953 1256.81 523.43C1251.47 520.264 1246.34 517.225 1250.55 510.632C1255.35 503.066 1254.04 497.692 1252.91 492.997C1252.56 491.585 1252.24 490.235 1252.09 488.905C1251.48 483.152 1257.87 482.546 1259.49 486.634C1262.31 493.663 1266.64 496.128 1269.74 497.895C1272.21 499.306 1273.91 500.271 1273.43 502.759C1271.29 513.007 1276.12 516.006 1282.24 519.801C1283.62 520.66 1285.07 521.56 1286.52 522.593C1286.9 522.859 1287.23 523.124 1287.54 523.39C1289.29 519.194 1289.12 513.841 1288.97 508.849C1288.75 501.915 1288.56 495.679 1293.55 494.213C1298.58 492.734 1303.3 482.966 1307.73 473.809C1312.48 463.994 1316.88 454.882 1320.97 457.434C1325.23 460.071 1324.17 466.724 1323.13 473.213C1322.23 478.864 1321.35 484.392 1324.02 487.037C1329.68 492.718 1330.43 499.969 1318.73 505.799C1313.31 508.503 1314.71 514.775 1316.19 521.403C1317.9 529.069 1319.72 537.21 1311.21 540.859C1306.71 542.779 1303.84 546.295 1301.66 550.061ZM92.4219 550.398C92.6436 549.895 92.7393 549.602 92.7393 549.602C92.7393 549.602 87.0801 542.978 90.0283 537.496C89.7012 537.205 89.4053 536.898 89.1436 536.575C88.8213 536.175 88.5518 535.749 88.3408 535.298L87.8477 534.239C88.0205 534.855 88.2373 535.208 88.2832 535.283L88.291 535.298C86.7559 536.202 84.4307 540.529 82.8203 543.837C82.5898 544.397 82.2314 545.166 81.707 546.198L81.6895 546.232C81.499 546.647 81.3428 546.997 81.2266 547.258C80.8145 548.276 80.4893 549.399 80.2344 550.577C84.29 550.484 88.3506 550.425 92.4219 550.398ZM111.679 529.009C112.808 529.717 114.002 530.466 115.373 531.135C113.834 530.997 112.133 530.964 110.516 530.984C108.254 530.353 105.76 530.088 103.562 529.854C102.489 529.74 101.486 529.633 100.615 529.495L100.252 529.434L100.083 529.403C99.8262 529.355 99.584 529.303 99.3574 529.246L99.1504 529.19L98.9258 529.123L98.7734 529.072C98.6611 529.033 98.5557 528.992 98.4561 528.948C98.3711 528.911 98.291 528.872 98.2158 528.832C95.4248 527.328 99.5068 525.823 105.089 526.245C107.572 526.433 109.504 527.645 111.679 529.009ZM97.5693 540.873C98.2842 541.035 99.0205 541.176 99.7686 541.296C99.2754 542.186 98.793 542.858 98.3604 543.135C98.1299 543.282 97.9131 543.318 97.7168 543.215C97.1992 542.952 97.2344 542.054 97.5693 540.873ZM1236.51 536.726C1238.64 545.673 1227.02 547.965 1227.02 547.965L1224.33 550.819C1224.1 551.142 1223.9 551.283 1223.9 551.28C1220.75 554.568 1211.43 552.224 1206.69 549.523C1202.28 547.006 1204.3 546.198 1207.44 544.946L1208.16 544.658C1210.34 543.767 1213.32 544.402 1215.74 544.918C1217.2 545.23 1218.46 545.498 1219.21 545.359C1221.2 545.012 1219.05 543.276 1215.55 542.432C1214.01 542.047 1212.59 542.4 1211 542.798C1209.02 543.295 1206.75 543.861 1203.61 543.149C1197.96 541.882 1197.17 530.188 1197.17 530.188C1200.56 532.602 1208.03 532.752 1208.73 531.524C1209.2 530.712 1204.77 529.005 1201.38 527.702C1200.51 527.366 1199.71 527.056 1199.07 526.796C1198.52 526.567 1198.09 526.375 1197.88 526.238C1196.44 525.338 1194.73 521.297 1198.48 515.58C1202.24 509.841 1212.18 515.274 1212.18 515.274C1212.18 515.274 1215.73 528.613 1217.74 529.559C1219.75 530.505 1216.91 517.568 1216.91 517.568C1221.09 518.519 1229.78 526.86 1229.78 526.86C1229.78 526.86 1224.89 539.451 1227.08 539.868C1229.25 540.306 1230.83 528.5 1230.83 528.5C1234.36 530.955 1236.51 536.726 1236.51 536.726ZM666.059 580.345C669.607 585.948 661.983 590.074 661.983 590.074L661.771 590.504C661.784 591.238 661.952 594.227 663.762 597.603C663.763 597.603 666.973 602.494 665.143 608.462L664.309 608.236C664.309 608.236 665.061 602.08 663.578 598.682L663.522 598.559C663.491 598.492 663.459 598.424 663.426 598.36C663.158 597.833 662.985 597.456 662.883 597.194C662.142 595.674 661.093 593.733 660.392 593.324L660.397 593.315C660.416 593.284 660.48 593.176 660.545 592.995L660.537 593.011C659.124 595.963 651.994 596.455 648.034 595.661C644.37 594.942 645.573 593.964 647.465 592.427L647.936 592.043C649.273 590.939 651.534 590.707 653.359 590.52C654.447 590.409 655.38 590.313 655.871 590.059C657.202 589.376 655.264 588.694 652.618 588.884C651.45 588.969 650.538 589.521 649.511 590.143C648.226 590.92 646.76 591.806 644.387 592.027C640.114 592.424 636.861 584.662 636.861 584.662C639.818 585.551 645.109 583.98 645.307 582.996C645.438 582.337 641.971 582.169 639.299 582.039C637.979 581.976 636.853 581.921 636.45 581.821C635.234 581.536 633.099 579.171 634.413 574.457C635.744 569.743 643.976 571.219 643.976 571.219C643.976 571.219 649.578 579.456 651.205 579.663C652.832 579.869 647.854 571.711 647.854 571.711C651.008 571.425 659.042 575.155 659.042 575.155C659.042 575.155 658.533 584.773 660.159 584.583C661.786 584.376 660.159 576.028 660.159 576.028C663.216 576.901 666.059 580.345 666.059 580.345Z" fill="url(#paint1_linear)"/>
<path d="M1291.33 567C1291.25 566.775 1287.08 541.671 1277.69 534.851C1268.07 527.882 1266.35 521.362 1263 506.15L1263.67 506C1266.95 521.063 1268.67 527.432 1278.06 534.327C1287.68 541.371 1291.85 565.951 1292 566.925L1291.33 567Z" fill="white"/>
<path d="M1288.26 573C1288.26 572.926 1286.54 564.063 1291.94 552.593C1297.49 540.975 1300.12 528.239 1298.99 518.557C1298.39 513.344 1301.77 511.259 1305.07 509.248C1308.3 507.311 1311.6 505.3 1311.45 500.087C1311.3 495.395 1313.25 484.447 1313.32 484L1314 484.149C1314 484.298 1311.97 495.469 1312.12 500.087C1312.35 505.673 1308.82 507.833 1305.45 509.844C1302.22 511.78 1299.14 513.642 1299.74 518.408C1300.87 528.239 1298.17 541.124 1292.61 552.891C1287.29 564.063 1288.94 572.702 1288.94 572.851L1288.26 573Z" fill="white"/>
<path fill-rule="evenodd" clip-rule="evenodd" d="M0 701V593.368L0.829102 593.507C63.959 604.018 323.636 647.256 711 600.934C1100.09 554.407 1296.56 580.704 1366 617.136V701H0Z" fill="url(#paint2_linear)"/>
<path d="M1101.06 72.8267C1101.06 72.8267 1111.57 52.8994 1133.69 54.572C1155.8 56.2286 1172.41 72.8267 1172.41 72.8267C1172.41 72.8267 1190.7 14.4147 1249.31 18.174C1307.92 21.9332 1311.32 72.8267 1311.32 72.8267C1311.32 72.8267 1352.92 57.6463 1374.85 64.5276C1396.79 71.409 1401.9 86.1116 1401.9 86.1116C1401.9 86.1116 1451.97 69.8161 1470.09 80.393C1488.21 90.9699 1491 95 1491 95H1038.01C1038.01 95 1036.91 91.4 1059.03 77.9718C1081.16 64.5276 1101.06 72.8267 1101.06 72.8267Z" fill="url(#paint3_linear)"/>
<path d="M379.461 216.057C379.461 216.057 384.704 206.223 395.738 207.048C406.771 207.866 415.056 216.057 415.056 216.057C415.056 216.057 424.184 187.231 453.424 189.086C482.664 190.941 484.356 216.057 484.356 216.057C484.356 216.057 505.113 208.566 516.051 211.962C526.998 215.358 529.548 222.613 529.548 222.613C529.548 222.613 554.53 214.572 563.57 219.791C572.61 225.011 574 227 574 227H348.004C348.004 227 347.456 225.223 358.49 218.596C369.532 211.962 379.461 216.057 379.461 216.057Z" fill="url(#paint4_linear)"/>
<path d="M-15.4162 42.0101C-15.4162 42.0101 -7.32003 26.7411 9.71868 28.0227C26.7574 29.292 39.5518 42.0101 39.5518 42.0101C39.5518 42.0101 53.6464 -2.74718 98.8008 0.133302C143.955 3.01378 146.568 42.0101 146.568 42.0101C146.568 42.0101 178.622 30.3783 195.513 35.651C212.417 40.9238 216.354 52.1894 216.354 52.1894C216.354 52.1894 254.934 39.7032 268.894 47.8076C282.853 55.912 285 59 285 59H-63.9931C-63.9931 59 -64.8395 56.2416 -47.8008 45.9524C-30.7498 35.651 -15.4162 42.0101 -15.4162 42.0101Z" fill="url(#paint5_linear)"/>
<defs>
<linearGradient id="paint0_linear" x1="1102.5" y1="248" x2="1102.5" y2="280.478" gradientUnits="userSpaceOnUse">
<stop stop-color="#FFD0B0"/>
<stop offset="1" stop-color="#FFD0B0" stop-opacity="0"/>
</linearGradient>
<linearGradient id="paint1_linear" x1="683" y1="457" x2="683" y2="701" gradientUnits="userSpaceOnUse">
<stop stop-color="#003760"/>
<stop offset="1" stop-color="#0160A6"/>
</linearGradient>
<linearGradient id="paint2_linear" x1="683" y1="576" x2="683" y2="701" gradientUnits="userSpaceOnUse">
<stop stop-color="#003760"/>
<stop offset="1" stop-color="#0160A6"/>
</linearGradient>
<linearGradient id="paint3_linear" x1="1264.5" y1="18" x2="1264.5" y2="110.623" gradientUnits="userSpaceOnUse">
<stop stop-color="#FFD0B0"/>
<stop offset="1" stop-color="#FFD0B0" stop-opacity="0"/>
</linearGradient>
<linearGradient id="paint4_linear" x1="461" y1="189" x2="461" y2="234.71" gradientUnits="userSpaceOnUse">
<stop stop-color="#FFD0B0"/>
<stop offset="1" stop-color="#FFD0B0" stop-opacity="0"/>
</linearGradient>
<linearGradient id="paint5_linear" x1="110.5" y1="0" x2="110.5" y2="70.971" gradientUnits="userSpaceOnUse">
<stop stop-color="#FFD0B0"/>
<stop offset="1" stop-color="#FFD0B0" stop-opacity="0"/>
</linearGradient>
</defs>
</svg>
