<svg width="61" height="61" viewBox="0 0 61 61" fill="none" xmlns="http://www.w3.org/2000/svg">
<path d="M31.1211 40.4399C31.1211 46.2721 26.3932 51 20.561 51C14.7288 51 10.0009 46.2721 10.0009 40.4399L10.0009 36.1275L31.1211 36.1275L31.1211 40.4399Z" fill="white"/>
<path d="M50.9961 41.0611C50.9961 46.5502 46.5463 51 41.0572 51C35.5681 51 31.1183 46.5502 31.1183 41.0611L31.1183 36.1275L50.9961 36.1275L50.9961 41.0611Z" fill="white"/>
<path fill-rule="evenodd" clip-rule="evenodd" d="M10 32.5089C10 21.1876 19.1777 12.0099 30.499 12.0099C41.8203 12.0099 50.998 21.1876 50.998 32.5089V33.3138H10V32.5089ZM26.9835 22.6618C26.9835 24.7707 25.2222 26.4804 23.0494 26.4804C20.8766 26.4804 19.1152 24.7707 19.1152 22.6618C19.1152 20.5528 20.8766 18.8431 23.0494 18.8431C25.2222 18.8431 26.9835 20.5528 26.9835 22.6618ZM37.5423 26.4804C39.7151 26.4804 41.4765 24.7707 41.4765 22.6618C41.4765 20.5528 39.7151 18.8431 37.5423 18.8431C35.3696 18.8431 33.6082 20.5528 33.6082 22.6618C33.6082 24.7707 35.3696 26.4804 37.5423 26.4804Z" fill="white"/>
<ellipse cx="48.723" cy="12.2108" rx="2.27767" ry="2.21078" fill="white"/>
<ellipse cx="12.2777" cy="12.2108" rx="2.27767" ry="2.21078" fill="white"/>
</svg>
