<svg width="41" height="41" viewBox="0 0 41 41" fill="none" xmlns="http://www.w3.org/2000/svg">
<path d="M8 20.7626C8 13.8591 13.5964 8.26263 20.5 8.26263C27.4035 8.26263 32.9999 13.8591 32.9999 20.7626V21.6464H8V20.7626Z" fill="#3C50E0"/>
<path d="M20.8789 26.3181C20.8789 29.8745 17.9959 32.7575 14.4395 32.7575C10.8832 32.7575 8.00015 29.8745 8.00015 26.3181L8.00015 23.4141L20.8789 23.4141L20.8789 26.3181Z" fill="#3C50E0"/>
<path d="M33 26.6969C33 30.0441 30.2866 32.7575 26.9394 32.7575C23.5922 32.7575 20.8788 30.0441 20.8788 26.6969L20.8788 23.4141L33 23.4141L33 26.6969Z" fill="#3C50E0"/>
<circle cx="15.9556" cy="14.9545" r="2.39898" fill="white"/>
<circle cx="24.7935" cy="14.9545" r="2.39898" fill="white"/>
<circle cx="31.6115" cy="8.38889" r="1.38889" fill="#3C50E0"/>
<circle cx="9.38889" cy="8.38889" r="1.38889" fill="#3C50E0"/>
</svg>
