<svg width="18" height="18" viewBox="0 0 18 18" fill="none" xmlns="http://www.w3.org/2000/svg">
<path d="M8.99984 0.666656C13.6023 0.666656 17.3332 4.39749 17.3332 8.99999C17.3332 13.6025 13.6023 17.3333 8.99984 17.3333C4.39734 17.3333 0.666504 13.6025 0.666504 8.99999C0.666504 4.39749 4.39734 0.666656 8.99984 0.666656ZM11.9415 6.05832L11.8715 5.99749C11.7653 5.919 11.637 5.87615 11.505 5.87511C11.3729 5.87406 11.2439 5.91486 11.1365 5.99166L11.0582 6.05832L8.99984 8.11582L6.9415 6.05749L6.8715 5.99749C6.76532 5.919 6.637 5.87615 6.50495 5.87511C6.37291 5.87406 6.24392 5.91486 6.1365 5.99166L6.05817 6.05832L5.99734 6.12832C5.91885 6.23451 5.876 6.36283 5.87495 6.49488C5.87391 6.62692 5.91471 6.7559 5.9915 6.86332L6.05817 6.94166L8.11567 8.99999L6.05734 11.0583L5.99734 11.1283C5.91885 11.2345 5.876 11.3628 5.87495 11.4949C5.87391 11.6269 5.91471 11.7559 5.9915 11.8633L6.05817 11.9417L6.12817 12.0025C6.23436 12.081 6.36268 12.1238 6.49472 12.1249C6.62677 12.1259 6.75575 12.0851 6.86317 12.0083L6.9415 11.9417L8.99984 9.88416L11.0582 11.9425L11.1282 12.0025C11.2344 12.081 11.3627 12.1238 11.4947 12.1249C11.6268 12.1259 11.7558 12.0851 11.8632 12.0083L11.9415 11.9417L12.0023 11.8717C12.0808 11.7655 12.1237 11.6371 12.1247 11.5051C12.1258 11.3731 12.085 11.2441 12.0082 11.1367L11.9415 11.0583L9.884 8.99999L11.9423 6.94166L12.0023 6.87166C12.0808 6.76547 12.1237 6.63715 12.1247 6.50511C12.1258 6.37306 12.085 6.24408 12.0082 6.13666L11.9415 6.05832L11.8715 5.99749L11.9415 6.05832Z" fill="#B2A1B2"/>
</svg>
