<svg width="18" height="18" viewBox="0 0 18 18" fill="none" xmlns="http://www.w3.org/2000/svg">
<path d="M7.19665 0.694996C7.28998 0.726663 7.38165 0.764996 7.47081 0.80833L8.53998 1.335C8.68309 1.40544 8.84047 1.44207 8.99998 1.44207C9.15949 1.44207 9.31687 1.40544 9.45998 1.335L10.5291 0.80833C11.0744 0.540128 11.7039 0.49946 12.2791 0.695268C12.8543 0.891077 13.3283 1.30733 13.5966 1.8525L13.6583 1.9875L13.7108 2.12666L14.0941 3.25416C14.1983 3.56083 14.4391 3.80083 14.745 3.905L15.8733 4.28833C16.182 4.39334 16.4646 4.56299 16.7025 4.78596C16.9403 5.00893 17.1279 5.28008 17.2526 5.5813C17.3773 5.88252 17.4363 6.20689 17.4256 6.53273C17.415 6.85857 17.3349 7.17839 17.1908 7.47083L16.665 8.54C16.5945 8.68311 16.5579 8.84049 16.5579 9C16.5579 9.1595 16.5945 9.31688 16.665 9.46L17.1908 10.5292C17.3348 10.8216 17.4147 11.1413 17.4253 11.467C17.4359 11.7928 17.3768 12.1171 17.2521 12.4182C17.1274 12.7193 16.94 12.9904 16.7022 13.2133C16.4644 13.4362 16.1818 13.6058 15.8733 13.7108L14.745 14.0942C14.594 14.1456 14.4569 14.2311 14.3442 14.3439C14.2316 14.4568 14.1463 14.594 14.095 14.745L13.7108 15.8733C13.6058 16.1819 13.4362 16.4644 13.2132 16.7022C12.9903 16.94 12.7193 17.1275 12.4182 17.2522C12.117 17.3768 11.7928 17.4359 11.467 17.4253C11.1413 17.4147 10.8215 17.3348 10.5291 17.1908L9.45998 16.665C9.31687 16.5946 9.15949 16.5579 8.99998 16.5579C8.84047 16.5579 8.68309 16.5946 8.53998 16.665L7.47081 17.1908C7.17841 17.3348 6.85867 17.4147 6.53292 17.4253C6.20718 17.4359 5.88292 17.3768 5.5818 17.2522C5.28068 17.1275 5.00962 16.94 4.78671 16.7022C4.5638 16.4644 4.39417 16.1819 4.28915 15.8733L3.90581 14.745C3.85424 14.594 3.76866 14.4568 3.65567 14.3441C3.54268 14.2314 3.4053 14.1462 3.25415 14.095L2.12665 13.7108C1.81804 13.6059 1.53537 13.4363 1.29751 13.2135C1.05965 12.9906 0.872076 12.7195 0.747301 12.4184C0.622526 12.1173 0.563427 11.793 0.573948 11.4672C0.584469 11.1414 0.664369 10.8216 0.808313 10.5292L1.33498 9.46C1.40542 9.31688 1.44205 9.1595 1.44205 9C1.44205 8.84049 1.40542 8.68311 1.33498 8.54L0.808313 7.47083C0.664369 7.17838 0.584469 6.85858 0.573948 6.53279C0.563427 6.207 0.622526 5.88272 0.747301 5.58159C0.872076 5.28046 1.05965 5.00941 1.29751 4.78654C1.53537 4.56367 1.81804 4.3941 2.12665 4.28916L3.25415 3.90583C3.40532 3.85436 3.54265 3.76883 3.6555 3.65583C3.76835 3.54284 3.85371 3.40541 3.90498 3.25416L4.28831 2.12666C4.38522 1.84166 4.53732 1.57853 4.73594 1.35233C4.93456 1.12612 5.1758 0.941258 5.44588 0.808308C5.71596 0.675357 6.00959 0.59692 6.30999 0.577478C6.61039 0.558035 6.91168 0.597969 7.19665 0.694996ZM11.8908 6.47416L7.37498 10.9908L5.72998 9.01583C5.67818 8.95054 5.61385 8.89628 5.54076 8.85622C5.46768 8.81617 5.38733 8.79114 5.30443 8.7826C5.22153 8.77405 5.13776 8.78218 5.05804 8.80649C4.97833 8.83081 4.90428 8.87082 4.84026 8.92417C4.77624 8.97752 4.72353 9.04314 4.68524 9.11716C4.64696 9.19118 4.62386 9.27211 4.61731 9.35519C4.61076 9.43828 4.62089 9.52183 4.64711 9.60093C4.67333 9.68004 4.71511 9.75311 4.76998 9.81583L6.85331 12.3158C6.90886 12.3825 6.97769 12.4369 7.05542 12.4755C7.13315 12.5142 7.21807 12.5362 7.30478 12.5402C7.39149 12.5442 7.47808 12.5301 7.55903 12.4988C7.63998 12.4675 7.71353 12.4196 7.77498 12.3583L12.775 7.35833C12.8364 7.30111 12.8856 7.23211 12.9198 7.15544C12.954 7.07878 12.9723 6.99602 12.9738 6.9121C12.9753 6.82818 12.9598 6.74482 12.9284 6.667C12.897 6.58917 12.8502 6.51848 12.7908 6.45913C12.7315 6.39978 12.6608 6.35299 12.583 6.32156C12.5052 6.29013 12.4218 6.27469 12.3379 6.27617C12.254 6.27765 12.1712 6.29602 12.0945 6.33018C12.0179 6.36434 11.9489 6.41359 11.8916 6.475L11.8908 6.47416Z" fill="#00B359"/>
</svg>
