<svg width="50" height="50" viewBox="0 0 50 50" fill="none" xmlns="http://www.w3.org/2000/svg">
<circle cx="25" cy="25" r="25" fill="#7F0D7F"/>
<path d="M33.067 19.1926C33.1715 19.2786 33.2557 19.3867 33.3134 19.5091C33.3711 19.6315 33.4009 19.7653 33.4006 19.9006C33.4013 20.0183 33.3783 20.135 33.3329 20.2437C33.2876 20.3523 33.2208 20.4507 33.1366 20.533L29.527 24.1378C29.3583 24.3064 29.1295 24.401 28.891 24.401C28.6525 24.401 28.4238 24.3064 28.255 24.1378C28.1713 24.0544 28.1048 23.9553 28.0595 23.8462C28.0141 23.737 27.9908 23.62 27.9908 23.5018C27.9908 23.3836 28.0141 23.2666 28.0595 23.1575C28.1048 23.0483 28.1713 22.9492 28.255 22.8658L30.3334 20.8006H17.5006C17.2619 20.8006 17.033 20.7058 16.8642 20.537C16.6954 20.3682 16.6006 20.1393 16.6006 19.9006C16.6006 19.6619 16.6954 19.433 16.8642 19.2642C17.033 19.0954 17.2619 19.0006 17.5006 19.0006H30.3214L28.2598 16.9342C28.1762 16.8508 28.1099 16.7518 28.0647 16.6428C28.0195 16.5337 27.9962 16.4168 27.9962 16.2988C27.9962 16.1808 28.0195 16.0639 28.0647 15.9549C28.1099 15.8458 28.1762 15.7468 28.2598 15.6634C28.4286 15.4949 28.6573 15.4002 28.8958 15.4002C29.1343 15.4002 29.3631 15.4949 29.5318 15.6634L33.067 19.1938V19.1926ZM16.9342 29.3926C16.8297 29.4786 16.7455 29.5867 16.6878 29.7091C16.6301 29.8316 16.6003 29.9653 16.6006 30.1006C16.5999 30.2183 16.6229 30.335 16.6683 30.4437C16.7136 30.5523 16.7804 30.6507 16.8646 30.733L20.4742 34.3366C20.643 34.5052 20.8717 34.5998 21.1102 34.5998C21.3487 34.5998 21.5775 34.5052 21.7462 34.3366C21.8299 34.2532 21.8964 34.1541 21.9417 34.045C21.9871 33.9358 22.0104 33.8188 22.0104 33.7006C22.0104 33.5824 21.9871 33.4654 21.9417 33.3563C21.8964 33.2471 21.8299 33.148 21.7462 33.0646L19.669 31.0006H32.5006C32.7393 31.0006 32.9682 30.9058 33.137 30.737C33.3058 30.5682 33.4006 30.3393 33.4006 30.1006C33.4006 29.8619 33.3058 29.633 33.137 29.4642C32.9682 29.2954 32.7393 29.2006 32.5006 29.2006H19.6798L21.7414 27.1342C21.825 27.0508 21.8913 26.9518 21.9365 26.8428C21.9817 26.7337 22.005 26.6169 22.005 26.4988C22.005 26.3808 21.9817 26.2639 21.9365 26.1549C21.8913 26.0458 21.825 25.9468 21.7414 25.8634C21.5727 25.6949 21.3439 25.6002 21.1054 25.6002C20.8669 25.6002 20.6382 25.6949 20.4694 25.8634L16.933 29.3938L16.9342 29.3926Z" fill="white"/>
</svg>
