<svg width="26" height="26" viewBox="0 0 26 26" fill="none" xmlns="http://www.w3.org/2000/svg">
<path d="M9.9057 24.5653L14.655 22.5493C14.7417 23.1331 14.6321 23.7292 14.3434 24.2441C14.0547 24.7589 13.6033 25.1634 13.06 25.394C12.5167 25.6246 11.9122 25.6684 11.3413 25.5184C10.7704 25.3684 10.2655 25.0332 9.9057 24.5653ZM17.1484 0.791955C19.9297 2.31196 22.0177 4.26262 23.391 6.64129C24.7644 9.01996 25.411 11.804 25.3364 14.972C25.3302 15.2372 25.2189 15.4891 25.027 15.6722C24.8351 15.8554 24.5783 15.9548 24.313 15.9486C24.0478 15.9424 23.7959 15.8311 23.6128 15.6392C23.4296 15.4473 23.3302 15.1905 23.3364 14.9253C23.403 12.1093 22.8404 9.68796 21.659 7.64129C20.4777 5.59462 18.6604 3.89729 16.1897 2.54796C15.9568 2.42065 15.7841 2.20606 15.7095 1.95138C15.6348 1.69671 15.6644 1.42282 15.7917 1.18996C15.919 0.957095 16.1336 0.784344 16.3883 0.709704C16.643 0.635065 16.9168 0.664651 17.1497 0.791955H17.1484ZM4.94837 6.68662C6.78297 5.8674 8.8637 5.79116 10.7533 6.47392C12.643 7.15667 14.1944 8.54528 15.0817 10.348L15.2124 10.628L16.9297 14.4826L19.1937 16.4426C19.3177 16.5493 19.4244 16.6746 19.5484 16.876L19.627 17.028C19.7158 17.2282 19.7643 17.4439 19.7697 17.6629C19.7751 17.8818 19.7372 18.0997 19.6583 18.304C19.5795 18.5083 19.4611 18.6951 19.31 18.8536C19.1589 19.0122 18.978 19.1394 18.7777 19.228L5.00704 25.32C4.75337 25.432 4.47576 25.479 4.19936 25.4566C3.92296 25.4342 3.6565 25.3433 3.42413 25.1919C3.19176 25.0406 3.00083 24.8337 2.86863 24.5899C2.73643 24.3462 2.66714 24.0733 2.66704 23.796L2.6657 20.672L1.0097 16.9493C0.593039 16.0171 0.364377 15.0119 0.336813 13.9912C0.30925 12.9705 0.483327 11.9544 0.849073 11.001C1.21482 10.0477 1.76505 9.17592 2.46825 8.43558C3.17144 7.69525 4.01379 7.10091 4.94704 6.68662H4.94837ZM16.8324 5.59329C18.1217 6.29596 19.155 7.31862 19.9204 8.64529C20.6857 9.97196 21.055 11.3786 21.019 12.8453C21.0159 12.9766 20.9869 13.106 20.9337 13.2261C20.8806 13.3463 20.8043 13.4547 20.7092 13.5454C20.6141 13.636 20.5021 13.707 20.3795 13.7544C20.257 13.8017 20.1264 13.8244 19.995 13.8213C19.8637 13.8181 19.7343 13.7892 19.6142 13.736C19.4941 13.6828 19.3856 13.6065 19.295 13.5114C19.2043 13.4163 19.1333 13.3043 19.086 13.1818C19.0386 13.0593 19.0159 12.9286 19.019 12.7973C19.0457 11.7013 18.7724 10.6573 18.1884 9.64529C17.6044 8.63196 16.8364 7.87196 15.875 7.34929C15.6422 7.22234 15.4693 7.00808 15.3944 6.75366C15.3195 6.49924 15.3488 6.22548 15.4757 5.99262C15.6027 5.75976 15.8169 5.58687 16.0713 5.51198C16.3258 5.43709 16.5995 5.46634 16.8324 5.59329Z" fill="#8B6D8B"/>
</svg>
