<svg width="23" height="23" viewBox="0 0 23 23" fill="none" xmlns="http://www.w3.org/2000/svg">
<path d="M19.3362 1.4248H3.66394C2.42743 1.4248 1.42505 2.42719 1.42505 3.66369V19.3359C1.42505 20.5724 2.42743 21.5748 3.66394 21.5748H19.3362C20.5727 21.5748 21.575 20.5724 21.575 19.3359V3.66369C21.575 2.42719 20.5727 1.4248 19.3362 1.4248Z" stroke="#07003B" stroke-width="2" stroke-linecap="round" stroke-linejoin="round"/>
<path d="M7.582 9.26117C8.50938 9.26117 9.26117 8.50938 9.26117 7.582C9.26117 6.65462 8.50938 5.90283 7.582 5.90283C6.65462 5.90283 5.90283 6.65462 5.90283 7.582C5.90283 8.50938 6.65462 9.26117 7.582 9.26117Z" stroke="#07003B" stroke-width="2" stroke-linecap="round" stroke-linejoin="round"/>
<path d="M21.5752 14.8585L15.978 9.26123L3.66406 21.5751" stroke="#07003B" stroke-width="2" stroke-linecap="round" stroke-linejoin="round"/>
</svg>
