<svg width="450" height="335" viewBox="0 0 450 335" fill="none" xmlns="http://www.w3.org/2000/svg">
<g clip-path="url(#clip0_31_2)">
<path d="M70.6999 239.05L79.79 239.92C79.79 242.68 79.93 245.25 79.79 247.81C78.47 269.61 76.97 291.4 75.79 313.21C75.24 323.21 77.53 325.27 87.79 325.21L348.19 324.31C356.95 324.31 359.04 322.48 358.5 313.57C357.12 290.903 355.53 268.237 353.73 245.57C353.39 241.35 354.2 239.57 358.65 238.98C363.59 238.36 363.57 241.21 363.77 244.56C365.183 267.48 366.623 290.393 368.09 313.3C368.97 327.21 362.02 334.63 347.93 334.49C317.59 334.17 287.25 333.54 256.93 333.42C218.77 333.273 180.61 333.337 142.45 333.61C123.45 333.73 104.53 334.45 85.5799 334.7C71.3499 334.9 64.7599 326.8 65.9999 312.51C67.4999 295.19 68.1699 277.81 69.2499 260.45C69.6499 253.59 70.1499 246.73 70.6999 239.05Z" fill="#334193"/>
<path d="M351.65 72.51C341.76 74.51 341.65 74.25 341.12 65.61C340.24 50.92 339.32 36.23 338.12 21.61C337.29 11.71 335.98 10.29 326.35 10.2C279.71 9.74004 233.06 9.33005 186.41 9.30005C159.86 9.30005 133.3 9.98005 106.75 10.4001C98.15 10.5401 96.34 11.9 95.6 20.17C94.19 35.71 93.19 51.2901 91.91 66.8401C91.64 70.1701 93.5801 75.07 86.8001 74.42C81.0201 73.86 81.9001 70.5 82.2401 66.42C83.4801 51.3067 84.4801 36.1767 85.2401 21.0301C85.9801 7.31006 92.4201 0.330039 106.24 0.290039C180.36 0.0900388 254.48 0.0167348 328.6 0.0700681C338.12 0.0700681 346.13 5.75006 347.05 14.3701C349.01 33.5401 350.11 52.93 351.65 72.51Z" fill="#334193"/>
<path d="M449.27 98.9301C434.27 117.49 420.45 134.42 406.76 151.44C392.913 168.64 379.137 185.897 365.43 203.21C361.27 208.5 356.34 210.67 349.32 209.07C348.63 197.89 347.94 186.86 347.12 173.84C343.12 178.51 340.19 181.84 337.4 185.32C333.07 190.71 328.74 196.1 324.64 201.67C320.4 207.44 315.13 210.24 306.86 208.17C304.74 171.49 302.59 134.46 300.41 96.8701H313.23C314.92 123.92 316.62 151.01 318.42 179.77C322.78 174.77 325.91 170.32 329.88 166.77C342.56 155.57 347.52 142.4 344.18 125.32C342.43 116.37 343.87 106.79 343.87 97.0801H355.65C357.24 124.32 358.79 151.08 360.35 177.91L361.87 178.47L382.73 152.71C396.07 136.24 409.5 119.85 422.65 103.23C425.31 99.8801 427.99 98.4701 432.24 98.8001C437.29 99.1901 442.38 98.9301 449.27 98.9301ZM351.12 101.46L347.68 101.8C347.68 103.96 347.61 106.12 347.68 108.27C348.13 120.53 348.83 132.78 348.93 145.04C348.909 148.251 347.857 151.371 345.93 153.94C337.28 164.72 328.21 175.16 319.24 185.68C317.788 187.179 316.256 188.598 314.65 189.93C313.58 171.32 312.65 153.93 311.57 136.63C310.92 125.95 310.16 115.28 309.22 104.63C309.08 103.04 307.7 101.56 306.89 100.04L304.89 100.72C306.89 135.26 308.89 169.81 310.89 206.36C314.75 203.94 317.82 202.76 319.82 200.58C323.88 196.17 327.33 191.19 331.08 186.48C337.18 178.83 343.32 171.22 350.63 162.11C351.63 177.73 352.42 191.22 353.24 204.7L355.02 206.11C357.96 203.58 361.35 201.41 363.75 198.44C383.67 173.83 403.4 149.07 423.2 124.36C428.667 117.527 434.16 110.703 439.68 103.89C439.17 103.08 438.68 102.27 438.16 101.46C433.82 103.27 428.1 103.91 425.36 107.1C410.85 124.02 397.07 141.56 383.07 158.91C374.72 169.25 366.42 179.62 357 191.35C354.34 160.21 354.34 130.65 351.12 101.41V101.46Z" fill="#D90280"/>
<path d="M113.49 95.4C137.49 95.4 160.69 95.22 183.86 95.5C191.93 95.59 198.54 100.72 200.06 107.25C201.86 115.01 199.13 121.11 192.72 125.9C178.26 136.7 163.95 147.69 150.04 158.26L197.65 208.76C191.33 208.76 185.22 208.08 179.33 208.93C172.18 209.93 168.05 206.12 163.94 201.64C153.08 189.833 142.24 177.97 131.42 166.05L127.65 168.23V208.77H108.85C110.37 171.51 111.9 134.37 113.49 95.4ZM184.75 126.18L186.36 125.28C186.9 124.9 187.44 124.5 188 124.13C193.72 120.32 198.3 115.7 195.81 108.13C193.32 100.56 187.05 99.66 180.1 99.76C160.94 100.05 141.77 100.07 122.6 100.24C120.924 100.348 119.254 100.549 117.6 100.84C116.14 135.79 114.72 170.16 113.27 204.99L122.27 204.47C123.27 175.12 124.14 146.47 125.11 116.47C143.96 116.47 161.75 116.41 179.54 116.47C184.27 116.47 186.63 118.8 185.21 123.8C184.73 124.21 184.21 124.62 183.77 125.04L182.31 126.13L180.18 128.13L178.18 128.85L178.35 129.62L181.16 129.17L183.26 127.17L184.75 126.18ZM129 162.33L181 121.5H129V162.33ZM133.08 164.54L135.08 163.54C145.84 175.41 156.94 187 167.25 199.25C173.25 206.36 180.08 204.74 186.57 204.17C171.957 188.483 157.273 172.737 142.52 156.93L133.08 164.54Z" fill="#D90280"/>
<path d="M292.12 95.8599V120.63H224.81V129.76H295.51V145.76H279.65C266.26 145.76 252.88 145.67 239.49 145.76C233.92 145.76 228.19 146.59 225.49 138.93V184.35H298.04V208.43H207.78C207.471 206.901 207.251 205.355 207.12 203.8C206.29 169.91 205.62 136.01 204.57 102.13C204.39 96.4799 206.01 94.8999 211.57 94.9799C235.66 95.3399 259.76 95.2599 283.85 95.3799C286.5 95.4099 289.13 95.6899 292.12 95.8599ZM221.25 116.62H287.38V100.04H209.23C209.91 135.04 210.59 169.45 211.23 204.22H293.73V188.51H221.25V116.62ZM228.8 134.38C231.43 141.51 231.43 141.53 237.6 141.61C240.28 141.61 242.95 141.61 245.6 141.61H291.09V134.37L228.8 134.38Z" fill="#D90280"/>
<path d="M99.32 209.45C98.0492 209.708 96.7633 209.885 95.47 209.98C68.47 210.52 41.47 211.09 14.47 211.48C3.70002 211.64 -1.52997 204.92 0.360034 194.08C5.45003 164.08 10.57 133.98 15.36 103.87C16.06 99.46 17.76 98.4 21.73 98.31C45.82 97.76 69.91 96.92 94 96.46C102.85 96.29 108.44 101.67 107.82 110.01C105.39 142.47 102.65 174.9 100.01 207.34C99.8499 208.064 99.6187 208.771 99.32 209.45V209.45ZM95.8 205.24C96.29 200.24 96.87 195.43 97.25 190.58C99.25 164.58 101.09 138.58 103.25 112.58C103.95 104.06 101.08 100.47 92.54 100.65C74.02 101.03 55.54 101.4 37 101.9C31.28 102.06 25.57 102.61 19.89 102.98C14.76 133.63 9.63 163.44 4.89 193.31C3.1 204.53 6.03 207.68 17.2 207.47C41.73 207 66.27 206.39 90.8 205.8C92.25 205.79 93.76 205.48 95.8 205.24Z" fill="#D90280"/>
<path d="M162.03 268.62C163.03 270.22 163.72 272.53 165.17 273.24C167.733 274.63 170.616 275.319 173.53 275.24C174.94 275.11 177.53 271.56 177.09 270.6C176.09 268.34 173.91 266.38 171.78 264.92C170.02 263.72 167.15 263.92 165.67 262.58C163.46 260.52 160.34 257.29 160.73 255.13C161.22 252.4 164.44 249.05 167.22 248.07C174.12 245.67 179.38 249.42 179.33 257.42C177.39 255.14 176.53 253.29 175.12 252.68C172.695 251.512 170.031 250.926 167.34 250.97C166.22 251.05 164.08 254.46 164.5 255.28C165.697 257.231 167.434 258.794 169.5 259.78C171.81 261.01 174.64 261.28 176.98 262.48C181.77 264.96 182.78 268.96 180.46 273.71C178.26 278.22 172.14 280.35 166.46 278.3C162.34 276.77 159.33 274.14 162.03 268.62Z" fill="#334193"/>
<path d="M106.45 211.53C103.53 230.78 107.36 227.07 90.4999 227.53C85.4199 227.66 80.33 227.53 74.23 227.53C74.93 222.78 75.3699 218.53 76.3099 214.33C76.5599 213.23 78.25 212.33 79.46 211.64C80.14 211.26 81.2 211.53 82.09 211.53H106.45ZM100.75 215.48C95.7499 215.48 91.03 215.82 86.4 215.39C80.4 214.83 78.83 217.52 79.95 223.5C84.68 223.5 89.56 223.25 94.4 223.57C100.03 223.93 102.45 221.93 100.75 215.48V215.48Z" fill="#D90280"/>
<path d="M133.39 248.71H153.39L153.5 250.85L137.91 251.56V260.79L152.33 261.47V263.41H137.89V275.5H153.89L153.83 277.9C147.41 277.9 141 277.97 134.59 277.74C134.15 277.74 133.46 275.47 133.44 274.25C133.34 266.02 133.39 257.79 133.39 248.71Z" fill="#334193"/>
<path d="M278.29 275.33L291.01 275.92V277.82H272.04C273.37 275.35 274.17 272.96 275.71 271.22C278.78 267.73 282.55 264.85 285.47 261.22C288.16 257.92 288.47 254.03 284.22 251.52C280.37 249.25 278.08 251.63 276.36 254.97C275.715 256.004 274.979 256.978 274.16 257.88L272.26 256.72C273.77 254.29 274.8 250.48 276.9 249.72C280.09 248.6 284.61 248.55 287.45 250.1C289.45 251.2 290.92 255.97 290.32 258.57C289.6 261.67 286.74 264.57 284.23 266.91C281.72 269.25 278.77 270.6 275.99 272.4L278.29 275.33Z" fill="#334193"/>
<path d="M316.06 264.18C315.36 267.33 315.35 271.24 313.6 274.07C312.08 276.54 308.6 279.2 305.96 279.17C303.32 279.14 298.96 276.17 298.58 273.96C297.446 267.715 297.355 261.325 298.31 255.05C298.7 252.58 303.08 249.05 305.58 249.05C308.52 249.12 312.11 252.05 314.06 254.7C315.71 256.98 315.41 260.65 316.06 264.18ZM311.92 264.63C311.68 261.11 312.14 258.39 311.19 256.32C310.24 254.25 308.06 251.96 306 251.44C304.86 251.15 301.67 254.14 301.46 255.89C300.852 261.391 300.808 266.94 301.33 272.45C301.48 274.07 303.91 276.45 305.54 276.69C307.01 276.89 309.66 274.92 310.28 273.32C311.45 270.31 311.54 266.93 311.92 264.63Z" fill="#334193"/>
<path d="M266.82 262.93C266.21 266.49 266.49 270.28 264.82 272.86C263.15 275.44 259.62 278.4 256.94 278.37C254.26 278.34 249.67 275.16 249.26 272.78C248.228 266.487 248.245 260.067 249.31 253.78C249.7 251.47 253.98 248.25 256.45 248.27C259.26 248.27 262.83 250.96 264.57 253.51C266.31 256.06 266.18 259.83 266.82 262.93ZM250.94 263.31C251.49 266.5 251.67 269.91 252.79 272.97C253.205 273.809 253.818 274.535 254.576 275.085C255.334 275.636 256.213 275.994 257.14 276.13C258.65 276.13 261.31 274.13 261.4 272.87C261.84 266.518 261.84 260.142 261.4 253.79C261.32 252.59 258.54 250.7 257.03 250.72C255.52 250.74 253.38 252.52 252.8 254.02C251.72 256.85 251.54 260.04 250.94 263.3V263.31Z" fill="#334193"/>
<path d="M241.8 277.58H223.65L222.65 275.81C226 272.17 229.44 268.59 232.65 264.81C234.51 262.67 237.07 260.44 237.47 257.95C237.82 255.76 236.18 252.37 234.32 251.03C233.26 250.26 229.81 252.22 227.82 253.53C226.63 254.31 226.18 256.2 225.4 257.58L223.08 256.2C224.77 253.74 226.08 249.78 228.24 249.2C231.63 248.27 236.42 248.53 239.13 250.42C241.04 251.74 241.63 256.98 240.73 259.8C239.73 262.87 236.35 265.2 233.97 267.8C232.22 269.73 230.4 271.59 227.76 274.39L241.96 275.57C241.94 276.26 241.87 276.93 241.8 277.58Z" fill="#334193"/>
<path d="M195.76 278.59V252.06L185.52 250.66L185.67 248.66H208.32L208.59 250.38L198.65 252.16V278.45L195.76 278.59Z" fill="#334193"/>
<path d="M51.72 191.45C41.46 191.45 31.2 191.5 20.94 191.45C14.14 191.45 11.94 189.34 12.94 182.36C15.06 167.17 17.74 152.05 20.19 136.91C20.26 136.47 20.46 136.06 20.55 135.62C23.72 119.19 23.72 119.32 40.22 119.06C55.39 118.82 70.55 118.15 85.72 117.85C94.33 117.69 96.34 120.43 95.33 128.73C93.12 147.07 90.98 165.43 89.33 183.83C88.89 188.83 87.33 190.28 82.52 190.13C72.28 189.81 62.01 190.03 51.76 190.03L51.72 191.45ZM84.72 185.77C86.91 165.51 89.15 145.68 90.99 125.77C91.1 124.63 88.05 122.06 86.5 122.07C67.79 122.25 49.09 122.73 30.4 123.38C28.98 123.43 26.62 125.17 26.4 126.38C23.07 144.96 20.01 163.58 16.93 182.2C16.42 185.31 17.3 187.45 21.07 187.35C42.12 186.85 63.21 186.32 84.65 185.77H84.72Z" fill="#D90280"/>
</g>
<defs>
<clipPath id="clip0_31_2">
<rect width="449.26" height="334.71" fill="white"/>
</clipPath>
</defs>
</svg>
