<svg width="50" height="50" viewBox="0 0 50 50" fill="none" xmlns="http://www.w3.org/2000/svg">
<circle cx="25" cy="25" r="25" fill="#7F0D7F"/>
<path d="M27.998 18C29.8343 17.9991 31.5974 18.7198 32.9073 20.0068C34.2172 21.2938 34.9689 23.0439 35.0003 24.88C35.0318 26.716 34.3406 28.4909 33.0756 29.8221C31.8106 31.1532 30.0732 31.9339 28.238 31.996L27.998 32H22.002C20.1656 32.0009 18.4025 31.2802 17.0926 29.9932C15.7828 28.7062 15.031 26.9561 14.9996 25.12C14.9681 23.284 15.6593 21.5091 16.9243 20.1779C18.1893 18.8468 19.9267 18.0661 21.762 18.004L22.001 18H27.997H27.998ZM27.75 25.5C27.4184 25.5 27.1005 25.6317 26.8661 25.8661C26.6316 26.1005 26.5 26.4185 26.5 26.75C26.5 27.0815 26.6316 27.3995 26.8661 27.6339C27.1005 27.8683 27.4184 28 27.75 28C28.0815 28 28.3994 27.8683 28.6338 27.6339C28.8683 27.3995 29 27.0815 29 26.75C29 26.4185 28.8683 26.1005 28.6338 25.8661C28.3994 25.6317 28.0815 25.5 27.75 25.5ZM21 22C20.8187 22 20.6436 22.0656 20.507 22.1848C20.3704 22.3039 20.2816 22.4684 20.257 22.648L20.25 22.75V24.248H18.75C18.5586 24.2461 18.3737 24.3173 18.2332 24.4473C18.0926 24.5772 18.0071 24.7559 17.9941 24.9469C17.981 25.1378 18.0415 25.3265 18.163 25.4743C18.2846 25.6222 18.4581 25.7179 18.648 25.742L18.75 25.749L20.25 25.748V27.25C20.25 27.44 20.3222 27.6229 20.4519 27.7618C20.5817 27.9006 20.7593 27.9851 20.9488 27.998C21.1384 28.011 21.3258 27.9515 21.4733 27.8316C21.6207 27.7117 21.7171 27.5403 21.743 27.352L21.75 27.25V25.748H23.25C23.4388 25.7462 23.62 25.6733 23.7574 25.5437C23.8948 25.4142 23.9783 25.2376 23.9912 25.0492C24.0041 24.8608 23.9454 24.6745 23.8269 24.5274C23.7084 24.3804 23.5388 24.2835 23.352 24.256L23.25 24.249L21.75 24.248V22.75C21.75 22.5511 21.6709 22.3603 21.5303 22.2197C21.3896 22.079 21.1989 22 21 22ZM29.75 22C29.4184 22 29.1005 22.1317 28.8661 22.3661C28.6316 22.6005 28.5 22.9185 28.5 23.25C28.5 23.5815 28.6316 23.8995 28.8661 24.1339C29.1005 24.3683 29.4184 24.5 29.75 24.5C30.0815 24.5 30.3994 24.3683 30.6338 24.1339C30.8683 23.8995 31 23.5815 31 23.25C31 22.9185 30.8683 22.6005 30.6338 22.3661C30.3994 22.1317 30.0815 22 29.75 22Z" fill="white"/>
</svg>
