<svg width="50" height="50" viewBox="0 0 50 50" fill="none" xmlns="http://www.w3.org/2000/svg">
<circle cx="25" cy="25" r="25" fill="#7F0D7F"/>
<path d="M25.0001 15.4C23.7271 15.4 22.5062 15.9057 21.606 16.8059C20.7058 17.7061 20.2001 18.927 20.2001 20.2C20.2001 21.473 20.7058 22.6939 21.606 23.5941C22.5062 24.4943 23.7271 25 25.0001 25C26.2731 25 27.494 24.4943 28.3942 23.5941C29.2944 22.6939 29.8001 21.473 29.8001 20.2C29.8001 18.927 29.2944 17.7061 28.3942 16.8059C27.494 15.9057 26.2731 15.4 25.0001 15.4ZM19.0109 26.2C18.6949 26.1987 18.3817 26.2599 18.0893 26.3799C17.797 26.4999 17.5312 26.6765 17.3072 26.8995C17.0832 27.1224 16.9055 27.3874 16.7841 27.6792C16.6628 27.9711 16.6003 28.284 16.6001 28.6C16.6001 30.6292 17.5997 32.1592 19.1621 33.1564C20.7005 34.1368 22.7741 34.6 25.0001 34.6C27.2261 34.6 29.2997 34.1368 30.8381 33.1564C32.4005 32.1604 33.4001 30.628 33.4001 28.6C33.4001 27.9635 33.1472 27.353 32.6972 26.9029C32.2471 26.4529 31.6366 26.2 31.0001 26.2H19.0109Z" fill="white"/>
</svg>
