<svg width="28" height="20" viewBox="0 0 28 20" fill="none" xmlns="http://www.w3.org/2000/svg">
<path d="M17.9971 0.666749C20.4455 0.665555 22.7964 1.62652 24.5429 3.34249C26.2894 5.05846 27.2916 7.392 27.3336 9.84006C27.3756 12.2881 26.4539 14.6547 24.7673 16.4295C23.0807 18.2043 20.7641 19.2453 18.3171 19.3281L17.9971 19.3334H10.0024C7.55401 19.3346 5.20316 18.3737 3.45667 16.6577C1.71017 14.9417 0.707903 12.6082 0.665924 10.1601C0.623945 7.71204 1.54562 5.34551 3.23225 3.57067C4.91889 1.79583 7.23541 0.754834 9.68244 0.672083L10.0011 0.666749H17.9958H17.9971ZM17.6664 10.6668C17.2244 10.6668 16.8005 10.8423 16.4879 11.1549C16.1754 11.4675 15.9998 11.8914 15.9998 12.3334C15.9998 12.7754 16.1754 13.1994 16.4879 13.5119C16.8005 13.8245 17.2244 14.0001 17.6664 14.0001C18.1085 14.0001 18.5324 13.8245 18.845 13.5119C19.1575 13.1994 19.3331 12.7754 19.3331 12.3334C19.3331 11.8914 19.1575 11.4675 18.845 11.1549C18.5324 10.8423 18.1085 10.6668 17.6664 10.6668ZM8.66644 6.00009C8.42479 6.0001 8.19132 6.08761 8.0092 6.24644C7.82708 6.40527 7.70864 6.62468 7.67577 6.86409L7.66644 7.00009V8.99742H5.66644C5.41127 8.99483 5.16476 9.08988 4.9774 9.26311C4.79003 9.43635 4.67597 9.67467 4.65859 9.92925C4.64121 10.1838 4.72182 10.4354 4.8839 10.6325C5.04599 10.8296 5.27729 10.9573 5.53044 10.9894L5.66644 10.9988L7.66644 10.9974V13.0001C7.66652 13.2535 7.76277 13.4973 7.93574 13.6825C8.10871 13.8676 8.34551 13.9802 8.59828 13.9975C8.85106 14.0147 9.10096 13.9354 9.29751 13.7755C9.49405 13.6156 9.62257 13.3871 9.65711 13.1361L9.66644 13.0001V10.9974H11.6664C11.9182 10.9951 12.1598 10.8978 12.3431 10.7251C12.5263 10.5524 12.6376 10.3169 12.6547 10.0657C12.6719 9.81446 12.5937 9.56603 12.4357 9.36997C12.2777 9.17392 12.0516 9.04469 11.8024 9.00809L11.6664 8.99875L9.66644 8.99742V7.00009C9.66644 6.73487 9.56108 6.48052 9.37355 6.29298C9.18601 6.10544 8.93166 6.00009 8.66644 6.00009ZM20.3331 6.00009C19.8911 6.00009 19.4672 6.17568 19.1546 6.48824C18.842 6.8008 18.6664 7.22472 18.6664 7.66675C18.6664 8.10878 18.842 8.5327 19.1546 8.84526C19.4672 9.15783 19.8911 9.33342 20.3331 9.33342C20.7751 9.33342 21.1991 9.15783 21.5116 8.84526C21.8242 8.5327 21.9998 8.10878 21.9998 7.66675C21.9998 7.22472 21.8242 6.8008 21.5116 6.48824C21.1991 6.17568 20.7751 6.00009 20.3331 6.00009Z" fill="#B2A1B2"/>
</svg>
