<svg width="24" height="28" viewBox="0 0 24 28" fill="none" xmlns="http://www.w3.org/2000/svg">
<path d="M6.94 4.45729C7.25975 4.31354 7.62325 4.3015 7.95181 4.42378C8.28037 4.54607 8.54755 4.79283 8.69551 5.11066C8.84346 5.42849 8.86029 5.7918 8.74235 6.12194C8.6244 6.45208 8.38118 6.72249 8.06533 6.87463C6.13715 7.76933 4.57232 9.29567 3.62987 11.201C2.68743 13.1063 2.42389 15.2763 2.88288 17.3518C3.34187 19.4273 4.49588 21.2838 6.15385 22.614C7.81183 23.9443 9.87435 24.6684 12 24.6666C14.1229 24.6667 16.1824 23.9429 17.8384 22.6147C19.4945 21.2864 20.6481 19.4332 21.1088 17.3609C21.5695 15.2885 21.3097 13.1211 20.3724 11.2163C19.4351 9.31152 17.8763 7.78331 15.9533 6.88396C15.6393 6.73027 15.3981 6.45936 15.2819 6.12959C15.1656 5.79981 15.1836 5.43757 15.3319 5.1209C15.4801 4.80423 15.7469 4.55849 16.0746 4.4366C16.4023 4.31472 16.7648 4.32646 17.084 4.46929C19.1511 5.4354 20.8998 6.97107 22.1248 8.89607C23.3498 10.8211 24.0003 13.0556 24 15.3373C24 21.9626 18.6267 27.3333 12 27.3333C5.37333 27.3333 2.38421e-07 21.9626 2.38421e-07 15.3373C-0.00045554 13.0509 0.652563 10.812 1.88212 8.88444C3.11168 6.95683 4.86656 5.42079 6.94 4.45729ZM12 0.666626C12.3266 0.666669 12.6418 0.786568 12.8858 1.00358C13.1299 1.22059 13.2858 1.51962 13.324 1.84396L13.3333 1.99996V11.3333C13.333 11.6731 13.2028 12 12.9695 12.2471C12.7362 12.4942 12.4174 12.6429 12.0781 12.6629C11.7389 12.6828 11.4048 12.5724 11.1442 12.3543C10.8836 12.1362 10.7161 11.8268 10.676 11.4893L10.6667 11.3333V1.99996C10.6667 1.64634 10.8071 1.3072 11.0572 1.05715C11.3072 0.807102 11.6464 0.666626 12 0.666626Z" fill="#B2A1B2"/>
</svg>
