<svg width="15" height="16" viewBox="0 0 15 16" fill="none" xmlns="http://www.w3.org/2000/svg">
<path d="M13.3393 0H11.5607C11.3248 0 11.0986 0.0936921 10.9319 0.260465C10.7651 0.427238 10.6714 0.653431 10.6714 0.889284V16H14.2285V0.889284C14.2285 0.653431 14.1349 0.427238 13.9681 0.260465C13.8013 0.0936921 13.5751 0 13.3393 0ZM8.00356 5.3357H6.22499C5.98914 5.3357 5.76294 5.4294 5.59617 5.59617C5.4294 5.76294 5.3357 5.98914 5.3357 6.22499V16H8.89284V6.22499C8.89284 5.98914 8.79915 5.76294 8.63238 5.59617C8.4656 5.4294 8.23941 5.3357 8.00356 5.3357ZM2.66785 10.6714H0.889284C0.653431 10.6714 0.427238 10.7651 0.260465 10.9319C0.0936921 11.0986 0 11.3248 0 11.5607V16H3.55714V11.5607C3.55714 11.3248 3.46344 11.0986 3.29667 10.9319C3.1299 10.7651 2.90371 10.6714 2.66785 10.6714Z" fill="#B3A1B3"/>
</svg>
