<svg width="22" height="28" viewBox="0 0 22 28" fill="none" xmlns="http://www.w3.org/2000/svg">
<path d="M18.6722 16.6667C19.0661 16.6667 19.4561 16.7443 19.8201 16.8951C20.184 17.0458 20.5146 17.2668 20.7931 17.5454C21.0715 17.824 21.2924 18.1548 21.443 18.5187C21.5936 18.8827 21.671 19.2728 21.6709 19.6667V20.8907C21.6705 21.6548 21.4313 22.3997 20.9869 23.0213C18.9269 25.9067 15.5602 27.3347 11.0002 27.3347C6.43887 27.3347 3.07487 25.9053 1.01887 23.02C0.576369 22.3987 0.338666 21.6548 0.338867 20.892V19.6653C0.338867 18.8705 0.654431 18.1082 1.21621 17.5459C1.778 16.9836 2.54003 16.6674 3.33487 16.6667H18.6709H18.6722ZM11.0002 0.67334C11.8757 0.67334 12.7426 0.845778 13.5514 1.18081C14.3603 1.51584 15.0952 2.0069 15.7142 2.62596C16.3333 3.24502 16.8244 3.97995 17.1594 4.78878C17.4944 5.59762 17.6669 6.46453 17.6669 7.34001C17.6669 8.21549 17.4944 9.08239 17.1594 9.89123C16.8244 10.7001 16.3333 11.435 15.7142 12.0541C15.0952 12.6731 14.3603 13.1642 13.5514 13.4992C12.7426 13.8342 11.8757 14.0067 11.0002 14.0067C9.23209 14.0067 7.5364 13.3043 6.28616 12.0541C5.03591 10.8038 4.33353 9.10812 4.33353 7.34001C4.33353 5.5719 5.03591 3.8762 6.28616 2.62596C7.5364 1.37572 9.23209 0.67334 11.0002 0.67334Z" fill="#B2A1B2"/>
</svg>
