<svg width="26" height="26" viewBox="0 0 26 26" fill="none" xmlns="http://www.w3.org/2000/svg">
<path d="M13.0175 0C13.9962 0.0106667 14.9708 0.124 15.9255 0.337333C16.1289 0.382733 16.313 0.490537 16.4521 0.645681C16.5913 0.800825 16.6785 0.995557 16.7015 1.20267L16.9282 3.23867C16.9601 3.52589 17.0591 3.80159 17.2171 4.04357C17.375 4.28555 17.5877 4.48704 17.8378 4.63181C18.0879 4.77659 18.3685 4.86059 18.657 4.87707C18.9455 4.89355 19.2339 4.84203 19.4988 4.72667L21.3655 3.90667C21.5552 3.82313 21.7661 3.80059 21.9691 3.84215C22.1722 3.88371 22.3573 3.98733 22.4988 4.13867C23.8481 5.58015 24.8528 7.30883 25.4375 9.19467C25.4988 9.39285 25.497 9.60519 25.4322 9.80228C25.3675 9.99937 25.2431 10.1714 25.0762 10.2947L23.4202 11.516C23.1871 11.687 22.9976 11.9105 22.8671 12.1684C22.7365 12.4263 22.6685 12.7113 22.6687 13.0003C22.6688 13.2894 22.737 13.5743 22.8678 13.8321C22.9986 14.0899 23.1883 14.3132 23.4215 14.484L25.0788 15.704C25.246 15.8273 25.3706 15.9996 25.4354 16.197C25.5001 16.3943 25.5018 16.607 25.4402 16.8053C24.8557 18.691 23.8514 20.4196 22.5028 21.8613C22.3615 22.0126 22.1767 22.1163 21.974 22.1581C21.7712 22.1999 21.5605 22.1777 21.3708 22.0947L19.4962 21.272C19.2316 21.1557 18.9433 21.1034 18.6547 21.1194C18.3661 21.1353 18.0854 21.2189 17.8351 21.3636C17.5849 21.5083 17.3723 21.7098 17.2145 21.952C17.0567 22.1941 16.9581 22.47 16.9268 22.7573L16.7015 24.792C16.6788 24.9969 16.5933 25.1897 16.4568 25.3441C16.3203 25.4985 16.1394 25.607 15.9388 25.6547C14.008 26.1139 11.9964 26.1139 10.0655 25.6547C9.86498 25.607 9.68408 25.4985 9.54756 25.3441C9.41103 25.1897 9.32557 24.9969 9.30285 24.792L9.07618 22.76C9.04338 22.4739 8.94399 22.1995 8.78598 21.9588C8.62798 21.718 8.41575 21.5177 8.16633 21.3738C7.9169 21.2299 7.63723 21.1465 7.34973 21.1302C7.06224 21.1139 6.77493 21.1652 6.51085 21.28L4.63485 22.1013C4.44522 22.1844 4.23448 22.2066 4.03172 22.1648C3.82896 22.123 3.64417 22.0193 3.50285 21.868C2.1536 20.4247 1.1493 18.6942 0.565512 16.8067C0.5039 16.6083 0.505588 16.3957 0.57034 16.1983C0.635092 16.0009 0.759695 15.8286 0.926845 15.7053L2.58551 14.484C2.81864 14.3131 3.00823 14.0897 3.13891 13.8319C3.26959 13.574 3.3377 13.2891 3.3377 13C3.3377 12.7109 3.26959 12.426 3.13891 12.1681C3.00823 11.9103 2.81864 11.6869 2.58551 11.516L0.928179 10.2973C0.760792 10.1742 0.635924 10.002 0.570929 9.80459C0.505934 9.60722 0.50404 9.3945 0.565512 9.196C1.1506 7.31004 2.15582 5.58135 3.50551 4.14C3.64699 3.98894 3.83186 3.8855 4.03461 3.84395C4.23736 3.80239 4.44802 3.82477 4.63751 3.908L6.50418 4.728C6.76954 4.84303 7.05818 4.89422 7.34691 4.87745C7.63564 4.86068 7.91641 4.77643 8.16668 4.63146C8.41694 4.48649 8.62971 4.28484 8.7879 4.04272C8.94608 3.8006 9.04528 3.52475 9.07751 3.23733L9.30418 1.20267C9.32706 0.995139 9.41432 0.799978 9.55372 0.644552C9.69313 0.489126 9.87769 0.381232 10.0815 0.336C11.0388 0.124 12.0148 0.012 13.0175 0ZM13.0002 9C11.9393 9 10.9219 9.42143 10.1718 10.1716C9.42161 10.9217 9.00018 11.9391 9.00018 13C9.00018 14.0609 9.42161 15.0783 10.1718 15.8284C10.9219 16.5786 11.9393 17 13.0002 17C14.061 17 15.0785 16.5786 15.8286 15.8284C16.5788 15.0783 17.0002 14.0609 17.0002 13C17.0002 11.9391 16.5788 10.9217 15.8286 10.1716C15.0785 9.42143 14.061 9 13.0002 9Z" fill="#B2A1B2"/>
</svg>
