<svg width="58" height="58" viewBox="0 0 58 58" fill="none" xmlns="http://www.w3.org/2000/svg">
<rect width="58" height="58" rx="6" fill="white"/>
<path d="M17.6536 37.2761L4.21275 53.0545C2.55348 55.0024 3.93773 57.9999 6.49648 57.9999H55C56.6569 57.9999 58 56.6568 58 54.9999V26.2555C58 25.2524 57.4987 24.3157 56.6641 23.7593L49.839 19.2093C48.5482 18.3487 46.8142 18.6143 45.8401 19.8217L29.3147 40.3038C28.1108 41.796 25.8351 41.7913 24.6373 40.2941L22.28 37.3474C21.1026 35.8757 18.8758 35.8414 17.6536 37.2761Z" fill="#2851BA"/>
<path d="M15.3692 22.04C19.053 22.04 22.0392 19.0537 22.0392 15.37C22.0392 11.6862 19.053 8.69995 15.3692 8.69995C11.6855 8.69995 8.69922 11.6862 8.69922 15.37C8.69922 19.0537 11.6855 22.04 15.3692 22.04Z" fill="#2851BA"/>
</svg>
